<?xml version="1.0" encoding="UTF-8"?>
<svg version="1.1" xmlns="http://www.w3.org/2000/svg" width="800" height="450">
<path d="M0 0 C1.67098999 1.68782043 1.67098999 1.68782043 3.15380859 3.90551758 C3.99895523 5.1473455 3.99895523 5.1473455 4.86117554 6.41426086 C5.45097198 7.31525009 6.04076843 8.21623932 6.6484375 9.14453125 C7.57361679 10.52652962 7.57361679 10.52652962 8.51748657 11.93644714 C9.81730291 13.88613042 11.10964035 15.84081741 12.39501953 17.80004883 C14.36907075 20.80347891 16.37189964 23.78609822 18.37890625 26.76757812 C19.63718722 28.66288824 20.89375686 30.55933583 22.1484375 32.45703125 C23.05135025 33.79940605 23.05135025 33.79940605 23.97250366 35.16889954 C24.78928085 36.42491219 24.78928085 36.42491219 25.62255859 37.70629883 C26.10711517 38.44052567 26.59167175 39.1747525 27.09091187 39.93122864 C28 42 28 42 27.77375793 44.17906189 C26.62474015 46.88312497 24.96359514 47.44542526 22.36328125 48.734375 C21.39914307 49.22260742 20.43500488 49.71083984 19.44165039 50.21386719 C18.40903076 50.72079102 17.37641113 51.22771484 16.3125 51.75 C14.21245715 52.81035484 12.11349624 53.87285517 10.015625 54.9375 C8.47551758 55.71480469 8.47551758 55.71480469 6.90429688 56.5078125 C1.1507841 59.46388766 -4.42818421 62.71678099 -10 66 C-8.77925781 66.27972656 -7.55851562 66.55945313 -6.30078125 66.84765625 C6.85090962 69.9973128 17.6213831 74.04710152 28 83 C28.09861328 81.38931641 28.09861328 81.38931641 28.19921875 79.74609375 C28.35883549 78.30954305 28.52177532 76.87335889 28.6875 75.4375 C28.72166016 74.73302734 28.75582031 74.02855469 28.79101562 73.30273438 C29.30826035 69.43231696 30.396153 67.53410941 33.34228516 64.92822266 C43.89167746 58.277262 54.62175618 59.24882797 66.64355469 59.57080078 C79.00100893 60.10127252 79.00100893 60.10127252 90.16796875 55.49609375 C99.74270182 49.4596159 111.40324113 51.27159688 122.3125 51.5625 C124.61388463 51.59767152 126.91532123 51.62960017 129.21679688 51.65820312 C134.81234599 51.73473185 140.40592608 51.85135949 146 52 C148.104319 58.54346963 149.10562418 65.19616878 150.1640625 71.9765625 C150.36099701 73.21997406 150.55793152 74.46338562 150.76083374 75.74447632 C151.17472003 78.36482383 151.58687121 80.98537265 151.99609375 83.60644531 C152.51948329 86.95734153 153.05024362 90.30702036 153.58326149 93.65639687 C154.0931855 96.86668426 154.59713733 100.07790722 155.1015625 103.2890625 C155.2921524 104.48810211 155.48274231 105.68714172 155.67910767 106.92251587 C155.85283905 108.04072723 156.02657043 109.1589386 156.20556641 110.31103516 C156.35941803 111.29141754 156.51326965 112.27179993 156.67178345 113.28189087 C156.98626495 115.88625389 157.06066503 118.37991958 157 121 C158.01578125 120.45730469 159.0315625 119.91460937 160.078125 119.35546875 C169.6234158 114.35405769 178.67152443 109.91676375 189.68383789 109.9765625 C190.4926088 109.97994629 191.3013797 109.98333008 192.13465881 109.98681641 C193.0580027 109.99334229 193.0580027 109.99334229 194 110 C193.9057373 108.37372681 193.9057373 108.37372681 193.80957031 106.71459961 C193.59142552 102.66976063 193.45431228 98.62543107 193.34082031 94.57641602 C193.28067411 92.82878078 193.19891972 91.08174467 193.09472656 89.33618164 C192.26286994 75.03558759 192.26286994 75.03558759 196.37304688 70.21923828 C205.41157419 64.39283334 212.96855585 66.32556962 222.97851562 68.3828125 C225.6225873 68.95762159 228.26486472 69.53820397 230.90625 70.125 C232.32197033 70.43547768 233.73778428 70.74552876 235.15368652 71.05517578 C238.09933511 71.70059873 241.04412247 72.34976866 243.98828125 73.00195312 C247.76431692 73.83829483 251.54194222 74.66717381 255.32016754 75.49356079 C258.23392558 76.13134037 261.1470578 76.77193832 264.0599823 77.41351318 C265.45373265 77.72034299 266.84762257 78.02653953 268.24165344 78.33209229 C270.18058058 78.75774207 272.11863385 79.18736669 274.05664062 79.6171875 C275.15899048 79.86065918 276.26134033 80.10413086 277.39709473 80.35498047 C280 81 280 81 282 82 C282.72693904 83.97888961 283.39816251 85.97954558 284 88 C284.49311172 87.68065994 284.98622345 87.36131989 285.49427795 87.03230286 C292.94599519 82.90670514 298.56132352 84.52412943 306.49609375 86.63671875 C307.76598648 86.9507515 309.03587921 87.26478424 310.34425354 87.58833313 C313.69914096 88.4186324 317.04398949 89.28400046 320.38800049 90.15692139 C323.8018254 91.04069934 327.22461485 91.88825531 330.64648438 92.74023438 C335.63270477 93.98856889 340.61554432 95.24933298 345.59155273 96.5378418 C347.08971779 96.92567085 347.08971779 96.92567085 348.6181488 97.32133484 C351 98 351 98 353 99 C353.84057248 108.145656 350.75759153 116.08395655 347.91040039 124.6237793 C347.36237411 126.29973319 346.81543633 127.97604335 346.26950073 129.65267944 C344.78844635 134.18785067 343.28994792 138.71706492 341.78642583 143.24483085 C340.84681412 146.07675686 339.91082952 148.90985542 338.97607231 151.74338722 C335.71206804 161.63650434 332.43322247 171.52456723 329.14135742 181.40844727 C326.07712058 190.61026943 323.04677027 199.82278346 320.03171355 209.04082364 C317.43745416 216.96700144 314.81894023 224.88489509 312.1816749 232.79686671 C310.60875441 237.51724069 309.04591111 242.24038124 307.50773811 246.97220421 C306.06053542 251.42151816 304.58335115 255.85973464 303.08285141 260.2913475 C302.53861943 261.91547558 302.00505411 263.54322468 301.48324776 265.17469597 C296.70935394 280.06169008 296.70935394 280.06169008 289.13950253 284.06297016 C288.08044878 284.52679993 288.08044878 284.52679993 287 285 C286.32611772 285.37779445 285.65223543 285.75558889 284.95793247 286.14483166 C279.35596345 288.5916099 271.48546487 285.0994083 265.9765625 283.3125 C265.14917572 283.04993408 264.32178894 282.78736816 263.46932983 282.5168457 C260.85242536 281.68440371 258.23879025 280.84216235 255.625 280 C253.84784827 279.43429227 252.07050612 278.86918235 250.29296875 278.3046875 C248.60399533 277.76616206 246.91518714 277.2271181 245.2265625 276.6875 C244.43077789 276.43331299 243.63499329 276.17912598 242.81509399 275.91723633 C237.23726251 274.11863126 237.23726251 274.11863126 235 273 C235 267.06 235 261.12 235 255 C233.49953125 254.81824219 231.9990625 254.63648438 230.453125 254.44921875 C217.26744575 252.83563965 204.12531134 251.04720011 191 249 C190.88373499 243.36841361 191.13264372 238.02110608 192 232.4375 C192.185625 231.21933594 192.37125 230.00117188 192.5625 228.74609375 C192.706875 227.83988281 192.85125 226.93367187 193 226 C191.6078125 226.7115625 191.6078125 226.7115625 190.1875 227.4375 C185.31160838 229.56443214 180.25466418 229.72443895 175 230 C175.144375 230.80824219 175.28875 231.61648437 175.4375 232.44921875 C175.623125 233.51785156 175.80875 234.58648437 176 235.6875 C176.185625 236.74324219 176.37125 237.79898438 176.5625 238.88671875 C176.95068074 241.64904062 177.08259976 244.21742043 177 247 C175.17959757 248.25862563 173.31563716 249.4542719 171.4375 250.625 C170.40496094 251.29789063 169.37242187 251.97078125 168.30859375 252.6640625 C162.15101213 255.27168052 155.33155416 253.1486694 149 252 C147.05090628 251.66351571 145.1015906 251.32831555 143.15209961 250.99414062 C137.65344763 250.04221553 132.16138077 249.05671127 126.67089844 248.05883789 C123.21626349 247.43137244 119.760561 246.810057 116.3046875 246.18945312 C114.10410198 245.79202467 111.90357876 245.39425108 109.703125 244.99609375 C108.15640106 244.71795082 108.15640106 244.71795082 106.57843018 244.43418884 C105.62603455 244.26053299 104.67363892 244.08687714 103.69238281 243.90795898 C102.85604309 243.75632797 102.01970337 243.60469696 101.15802002 243.44847107 C99 243 99 243 96 242 C95.67 236.72 95.34 231.44 95 226 C91.37 227.65 87.74 229.3 84 231 C81.69 227.04 79.38 223.08 77 219 C75.68 219.66 74.36 220.32 73 221 C65.26691073 224.86654464 56.54719829 222.62975945 48.38671875 221.28515625 C47.2953511 221.10995956 46.20398346 220.93476288 45.07954407 220.7542572 C42.78554497 220.38476867 40.49202675 220.01228345 38.19897461 219.63696289 C34.68254772 219.06168983 31.164694 218.49589798 27.64648438 217.93164062 C25.41397337 217.57086361 23.18154833 217.20955415 20.94921875 216.84765625 C19.89611008 216.6778273 18.8430014 216.50799835 17.75798035 216.33302307 C16.78299088 216.17293259 15.8080014 216.0128421 14.8034668 215.84790039 C13.94601364 215.70800186 13.08856049 215.56810333 12.2051239 215.42396545 C10 215 10 215 7 214 C8.485 202.615 8.485 202.615 10 191 C7.916875 192.093125 5.83375 193.18625 3.6875 194.3125 C-3.11701163 197.78581912 -10.23095415 201 -18 201 C-18 215.85 -18 230.7 -18 246 C-22.29 248.31 -26.58 250.62 -31 253 C-34.85018567 251.71660478 -38.00966565 250.61867413 -41.53881836 248.83618164 C-42.38508286 248.41136002 -43.23134735 247.98653839 -44.10325623 247.54884338 C-45.00633011 247.09057663 -45.90940399 246.63230988 -46.83984375 246.16015625 C-47.79782364 245.67856552 -48.75580353 245.19697479 -49.74281311 244.70079041 C-52.80964293 243.15849944 -55.87376254 241.6109236 -58.9375 240.0625 C-62.92431373 238.05046014 -66.91250371 236.04118847 -70.90234375 234.03515625 C-71.89526932 233.53592148 -72.88819489 233.03668671 -73.91120911 232.52232361 C-82.88521372 228.02654678 -91.93469298 223.69644618 -100.9987793 219.38598633 C-106.51295898 216.76201327 -111.98739922 214.06727056 -117.4375 211.3125 C-120.263125 209.889375 -123.08875 208.46625 -126 207 C-126 217.56 -126 228.12 -126 239 C-142.09736398 247.04868199 -142.09736398 247.04868199 -151.4375 248.21484375 C-152.4466748 248.36031143 -153.45584961 248.50577911 -154.49560547 248.65565491 C-157.66103824 249.10586336 -160.82987562 249.52178175 -164 249.9375 C-166.15004416 250.2406864 -168.29978796 250.54601083 -170.44921875 250.85351562 C-174.37338017 251.4042594 -178.2976472 251.95266558 -182.2265625 252.46850586 C-183.00596191 252.57174667 -183.78536133 252.67498749 -184.58837891 252.78135681 C-187.38174289 253.0346097 -190.19517926 253 -193 253 C-193.99 244.09 -193.99 244.09 -195 235 C-197.10375 236.546875 -197.10375 236.546875 -199.25 238.125 C-214.28343439 248.57017101 -229.88467176 253.19327616 -248.23046875 250.53125 C-261.48214243 247.65119673 -270.6647877 240.34566713 -280 231 C-279.75765625 231.91289795 -279.5153125 232.8257959 -279.265625 233.76635742 C-278.36617973 237.16630379 -277.47227029 240.56760729 -276.58203125 243.9699707 C-276.19620813 245.43995033 -275.80821159 246.90936134 -275.41796875 248.37817383 C-274.85619705 250.49413278 -274.30237097 252.61203898 -273.75 254.73046875 C-273.41484375 256.00301514 -273.0796875 257.27556152 -272.734375 258.58666992 C-271.49336917 264.35478908 -271.49336917 264.35478908 -272 267 C-282.37788219 277.44706012 -299.13359533 280.82002892 -312.6875 285.0625 C-315.10408266 285.83873171 -317.52010384 286.61671369 -319.93554688 287.39648438 C-328.77058043 290.22609393 -328.77058043 290.22609393 -333.1081543 291.58227539 C-333.98304001 291.85713272 -334.85792572 292.13199005 -335.75932312 292.41517639 C-338 293 -338 293 -341 293 C-349.74791539 273.6668559 -358.48673001 254.33482324 -366.86816406 234.83935547 C-372.80026824 221.07487544 -378.91623229 207.39205094 -385.02294922 193.7043457 C-389.4240949 183.83401251 -393.78744907 173.95253344 -398 164 C-399.75 164.6875 -401.5 165.375 -403.25 166.0625 C-408.26119334 168.0311831 -408.26119334 168.0311831 -410.93774414 167.91821289 C-414.15415165 166.48611763 -415.07371654 164.10757406 -416.79296875 161.0859375 C-417.14044159 160.48395538 -417.48791443 159.88197327 -417.84591675 159.26174927 C-418.97154966 157.30598525 -420.07933222 155.34070305 -421.1875 153.375 C-421.95688032 152.03241617 -422.72763436 150.69061863 -423.49975586 149.34960938 C-425.0066195 146.73044693 -426.5080932 144.10833009 -428.00488281 141.48339844 C-430.30497243 137.45709385 -432.66474643 133.4688478 -435.0625 129.5 C-435.72121094 128.39914063 -436.37992187 127.29828125 -437.05859375 126.1640625 C-438.45849168 123.88253872 -439.88123203 121.63612775 -441.34765625 119.3984375 C-441.72978271 118.80611328 -442.11190918 118.21378906 -442.50561523 117.60351562 C-443.54654559 115.99614661 -444.60463124 114.39992308 -445.6640625 112.8046875 C-447 110 -447 110 -446.95703125 107.421875 C-442.51023658 96.16876195 -427.91928148 89.57783959 -418 84 C-416.84419434 83.34185303 -416.84419434 83.34185303 -415.66503906 82.67041016 C-380.27976253 62.67750486 -337.38112425 51.1192045 -297 61 C-279.27552416 66.14216993 -263.52776009 77.85684381 -254.30859375 93.953125 C-249.32238316 103.51703735 -247.6835851 111.32493811 -247.875 122 C-247.88402344 122.96550781 -247.89304688 123.93101563 -247.90234375 124.92578125 C-247.92569365 127.28412099 -247.95843953 129.64192286 -248 132 C-247.11699219 131.52949219 -246.23398438 131.05898437 -245.32421875 130.57421875 C-231.85371702 123.52165937 -220.1150101 121.48221704 -205 121 C-205 119.02 -205 117.04 -205 115 C-206.216875 115.33 -207.43375 115.66 -208.6875 116 C-212.07941584 116.91984158 -214.30208611 117 -218 117 C-218.66 103.8 -219.32 90.6 -220 77 C-209.71977304 71.85988652 -200.64628841 67.50605306 -189.8828125 64.16796875 C-188.60648396 63.76172817 -187.33052152 63.35433582 -186.05490112 62.94587708 C-182.75156787 61.89154098 -179.44351051 60.85292816 -176.13409424 59.81787109 C-172.77629026 58.76433039 -169.42361625 57.69471147 -166.0703125 56.62695312 C-159.05344543 54.39674837 -152.03170541 52.183 -145 50 C-144.02851013 49.69470367 -143.05702026 49.38940735 -142.05609131 49.07485962 C-141.16472473 48.79919159 -140.27335815 48.52352356 -139.35498047 48.23950195 C-138.58185516 47.99867386 -137.80872986 47.75784576 -137.01217651 47.50971985 C-135 47 -135 47 -132 47 C-131.67 48.98 -131.34 50.96 -131 53 C-129.78763672 52.22462891 -129.78763672 52.22462891 -128.55078125 51.43359375 C-127.48214844 50.77488281 -126.41351563 50.11617187 -125.3125 49.4375 C-124.25675781 48.77621094 -123.20101563 48.11492188 -122.11328125 47.43359375 C-119 46 -119 46 -116.4375 45.99609375 C-113.20170077 47.3287867 -111.21195681 49.20649 -108.6875 51.625 C-107.71411366 52.54357525 -106.74015237 53.46154162 -105.765625 54.37890625 C-104.39664063 55.67634766 -104.39664063 55.67634766 -103 57 C-101.65371334 58.19642628 -100.30048143 59.38512783 -98.9375 60.5625 C-95.92926472 63.17701942 -92.95869751 65.82951656 -90 68.5 C-86.27361525 71.86004278 -82.5469898 75.21758691 -78.73828125 78.484375 C-77.2377611 79.79269369 -75.79956044 81.17185767 -74.375 82.5625 C-71.98735581 84.37896151 -71.98735581 84.37896151 -68.8125 83.3125 C-67.19971428 82.55986666 -65.59186299 81.79593149 -64 81 C-64.59283621 77.60807637 -65.76743189 75.7892243 -68.0625 73.25 C-68.61035156 72.63640625 -69.15820312 72.0228125 -69.72265625 71.390625 C-70.14417969 70.93171875 -70.56570313 70.4728125 -71 70 C-69.50442084 64.9771115 -66.50108163 62.03153585 -62.9375 58.375 C-58.12467603 53.32411384 -53.60485274 48.16027393 -49.2421875 42.7109375 C-46.76093371 39.71095469 -44.15134044 36.8484797 -41.5 34 C-38.02578664 30.26674967 -34.69931074 26.4762862 -31.5 22.5 C-10.52588259 -3.28846108 -10.52588259 -3.28846108 0 0 Z M-37 117 C-40.15179202 119.92666402 -40.55804208 122.98255987 -40.94921875 127.09375 C-41.00595075 129.22338215 -40.74947266 131.00140623 -40 133 C-36.0031697 131.41985779 -33.71520262 128.78737486 -30.875 125.625 C-30.00617188 124.66851562 -29.13734375 123.71203125 -28.2421875 122.7265625 C-26.40444418 120.4918154 -25.1141912 118.64150947 -24 116 C-30.72895399 114.74258746 -30.72895399 114.74258746 -37 117 Z M-93.28515625 131.1875 C-94.20167969 132.115625 -95.11820312 133.04375 -96.0625 134 C-97.44115234 135.3921875 -97.44115234 135.3921875 -98.84765625 136.8125 C-99.55792969 137.534375 -100.26820313 138.25625 -101 139 C-98.68118495 141.67901932 -96.68185532 142.66204403 -93.3125 143.6875 C-91.1778125 144.3371875 -91.1778125 144.3371875 -89 145 C-89.33 139.72 -89.66 134.44 -90 129 C-91.40683762 128.88474951 -91.40683762 128.88474951 -93.28515625 131.1875 Z M-314 130 C-312.11380178 137.03645577 -310.13072305 144.03359344 -308 151 C-307.34 151 -306.68 151 -306 151 C-303.5725087 145.57384297 -303.65136476 140.69749526 -305 135 C-307.05326051 131.99343997 -308.10647327 131.19958955 -311.640625 130.41015625 C-312.41921875 130.27480469 -313.1978125 130.13945312 -314 130 Z " fill="#3468AE" transform="translate(447,1)"/>
<path d="M0 0 C7.98247513 6.85657927 15.29614802 15.39254924 16.74609375 26.21679688 C17.3129663 34.18844208 17.08575173 42.51655437 14.46484375 50.1171875 C14.00464844 51.47650391 14.00464844 51.47650391 13.53515625 52.86328125 C6.08121223 72.62908453 -9.287306 87.61862067 -26.53515625 99.1171875 C-25.93524893 104.63517744 -24.98614336 109.87356662 -23.609375 115.24609375 C-23.42051224 115.99825668 -23.23164948 116.75041962 -23.0370636 117.52537537 C-22.43668545 119.91128792 -21.82967883 122.2954579 -21.22265625 124.6796875 C-20.8270623 126.25054743 -20.43187711 127.82151036 -20.03710938 129.39257812 C-16.27060061 145.44314057 -16.27060061 145.44314057 -11.4206543 161.16235352 C-10.53515625 164.1171875 -10.53515625 164.1171875 -10.53515625 170.1171875 C-24.89015625 174.5721875 -24.89015625 174.5721875 -39.53515625 179.1171875 C-47.27097127 162.59067359 -54.84577396 146.01372064 -62.23168945 129.32885742 C-67.35366898 117.76019705 -72.52554345 106.2147797 -77.72265625 94.6796875 C-78.47995034 92.99758167 -79.2371936 91.31545295 -79.99438477 89.63330078 C-83.18761367 82.54071203 -86.38345265 75.44933902 -89.5907135 68.36308289 C-90.82893405 65.62586247 -92.06437907 62.88739539 -93.29922485 60.14865112 C-93.868133 58.88884959 -94.4384011 57.62966121 -95.01010132 56.37112427 C-95.78480291 54.66559111 -96.5546582 52.95785903 -97.32421875 51.25 C-97.75428223 50.30012207 -98.1843457 49.35024414 -98.62744141 48.37158203 C-99.53515625 46.1171875 -99.53515625 46.1171875 -99.53515625 44.1171875 C-100.52257812 44.6225 -101.51 45.1278125 -102.52734375 45.6484375 C-103.82150801 46.30489763 -105.1157847 46.96113617 -106.41015625 47.6171875 C-107.06113281 47.95105469 -107.71210937 48.28492188 -108.3828125 48.62890625 C-113.30859375 51.1171875 -113.30859375 51.1171875 -115.53515625 51.1171875 C-116.89154618 49.09777604 -118.11115888 47.09634285 -119.30859375 44.984375 C-119.67360992 44.35491974 -120.0386261 43.72546448 -120.41470337 43.07693481 C-121.586909 41.0526652 -122.74887852 39.02274261 -123.91015625 36.9921875 C-125.0661355 34.98418013 -126.22422931 32.97742259 -127.38418579 30.97171021 C-128.10597771 29.72220885 -128.82518843 28.47121153 -129.54135132 27.21847534 C-131.19226739 24.34740146 -132.89804461 21.59429157 -134.78759766 18.87158203 C-136.53515625 16.1171875 -136.53515625 16.1171875 -136.53515625 13.1171875 C-119.30970589 3.10316363 -101.93274885 -5.03882059 -82.53515625 -9.8828125 C-81.23145934 -10.25672813 -79.92808825 -10.63178118 -78.625 -11.0078125 C-53.07576971 -17.95929631 -21.41156261 -16.66391804 0 0 Z M-34.53515625 43.1171875 C-32.64895803 50.15364327 -30.6658793 57.15078094 -28.53515625 64.1171875 C-27.87515625 64.1171875 -27.21515625 64.1171875 -26.53515625 64.1171875 C-24.10766495 58.69103047 -24.18652101 53.81468276 -25.53515625 48.1171875 C-27.58841676 45.11062747 -28.64162952 44.31677705 -32.17578125 43.52734375 C-32.954375 43.39199219 -33.73296875 43.25664062 -34.53515625 43.1171875 Z " fill="#FDCA05" transform="translate(167.53515625,87.8828125)"/>
<path d="M0 0 C15.69350773 2.87206084 31.36790503 5.80941277 47 9 C48.68701867 13.71798864 49.80762468 18.4052061 50.8046875 23.30078125 C51.05256516 24.49274361 51.05256516 24.49274361 51.30545044 25.70878601 C51.83203047 28.24266781 52.3539171 30.77748251 52.875 33.3125 C53.55707275 36.62168425 54.24169848 39.93032181 54.9296875 43.23828125 C55.09883163 44.05156387 55.26797577 44.8648465 55.44224548 45.70277405 C56.75771835 51.97094121 58.18458887 58.20844899 59.68319702 64.43525696 C60.78272055 69.0081959 61.75651199 73.58921955 62.60546875 78.21484375 C62.94415512 80.09135991 62.94415512 80.09135991 64 82 C64.87720624 78.37553047 65.75158733 74.75038551 66.625 71.125 C66.89425293 70.00834961 67.16350586 68.89169922 67.44091797 67.74121094 C69.13111112 60.70348628 70.76766614 53.65574036 72.36621094 46.59667969 C74.55693259 36.93438485 76.7723001 27.37931618 80 18 C88.08817747 18.52588179 95.7568804 20.17222155 103.625 22.0625 C104.81996094 22.34416016 106.01492188 22.62582031 107.24609375 22.91601562 C110.16546291 23.60498675 113.08331873 24.2997536 116 25 C115.32466997 28.77709343 114.30989155 32.30778991 113.08911133 35.94384766 C112.69339935 37.12764511 112.29768738 38.31144257 111.88998413 39.53111267 C111.45402149 40.82543657 111.01803654 42.11975296 110.58203125 43.4140625 C110.12816434 44.76902748 109.67460854 46.12409671 109.22134399 47.47926331 C108.25661316 50.36213769 107.29022086 53.24444717 106.32247925 56.12631226 C103.78821017 63.67414425 101.2652769 71.22576885 98.7421875 78.77734375 C98.49159262 79.52708529 98.24099773 80.27682682 97.98280907 81.0492878 C93.74092961 93.74266951 89.56016932 106.45485658 85.4375 119.1875 C81.18821415 132.29802821 76.91120367 145.39868361 72.56643677 158.47793579 C71.98570102 160.22691804 71.40599029 161.97624101 70.82736206 163.72592163 C70.03768484 166.11257445 69.24409219 168.49788608 68.44921875 170.8828125 C68.21454895 171.59396713 67.97987915 172.30512177 67.73809814 173.03782654 C66.11462948 177.88537052 66.11462948 177.88537052 65 179 C59.10083214 178.5264882 53.70879313 177.22293164 48.0625 175.5 C47.29615234 175.27441406 46.52980469 175.04882812 45.74023438 174.81640625 C40.13972622 173.13972622 40.13972622 173.13972622 39 172 C38.84481862 169.23223867 38.75338642 166.48693434 38.70288086 163.71655273 C38.68322769 162.84833893 38.66357452 161.98012512 38.64332581 161.08560181 C38.57920225 158.20167929 38.52201145 155.31766187 38.46484375 152.43359375 C38.42185736 150.43961177 38.37844093 148.44563901 38.33460999 146.45167542 C38.22016943 141.19264035 38.11159653 135.93349963 38.00421143 130.67431641 C37.89369507 125.31209904 37.77767641 119.9500011 37.66210938 114.58789062 C37.43599585 104.05870379 37.21607584 93.52939726 37 83 C36.89587799 83.61766487 36.79175598 84.23532974 36.68447876 84.87171173 C35.72588382 90.55720168 34.76482275 96.24226739 33.80175781 101.92700195 C33.44030395 104.06293836 33.07959889 106.19900164 32.71972656 108.33520508 C30.31733244 122.59187078 27.76680719 136.80940712 25 151 C15.52862238 150.34915569 6.32013663 148.73728221 -3 147 C-2.86639012 143.45416474 -2.65855676 139.91637398 -2.4375 136.375 C-2.40076172 135.37597656 -2.36402344 134.37695312 -2.32617188 133.34765625 C-1.81576779 126.00755945 -1.81576779 126.00755945 0.52441406 123.1171875 C2.29292897 121.64452081 4.12390947 120.33060184 6 119 C18.1661487 104.54978507 23.18353339 87.90942003 21.796875 69.26953125 C20.70418621 61.22876699 17.23347192 51.00732492 11.171875 45.26953125 C10.62015625 44.85058594 10.0684375 44.43164062 9.5 44 C6.39678553 40.27614263 6.74051006 39.04013014 7.0625 34.3125 C7.35294143 31.87227332 7.66528226 29.43454853 8 27 C8.19781741 24.87593561 8.38648081 22.75098177 8.5625 20.625 C8.706905 19.08319889 8.85214433 17.54147403 9 16 C8.36191406 15.86722656 7.72382812 15.73445313 7.06640625 15.59765625 C6.24011719 15.42105469 5.41382813 15.24445313 4.5625 15.0625 C3.73878906 14.88847656 2.91507813 14.71445313 2.06640625 14.53515625 C0 14 0 14 -1 13 C-0.90982004 10.80949979 -0.75333792 8.621534 -0.5625 6.4375 C-0.46066406 5.23996094 -0.35882812 4.04242188 -0.25390625 2.80859375 C-0.12822266 1.41833984 -0.12822266 1.41833984 0 0 Z " fill="#FDCA06" transform="translate(668,84)"/>
<path d="M0 0 C0.99 14.52 1.98 29.04 3 44 C6.96 38.39 10.92 32.78 15 27 C17.8014656 23.11131264 20.61190679 19.2304377 23.4375 15.359375 C27.09332344 10.32572866 30.58400043 5.19925168 34 0 C37.76086974 0.56654801 39.43430723 2.09195959 42.046875 4.7890625 C42.81 5.56636719 43.573125 6.34367187 44.359375 7.14453125 C45.54273438 8.37236328 45.54273438 8.37236328 46.75 9.625 C51.77209188 14.78938448 56.78894444 19.83877546 62.28222656 24.50537109 C63.9308959 25.93987275 65.47431855 27.43632265 67 29 C65.68516427 31.91834217 64.28366724 33.94920929 61.98828125 36.171875 C61.39909912 36.74945557 60.80991699 37.32703613 60.20288086 37.92211914 C59.57905518 38.52531982 58.95522949 39.12852051 58.3125 39.75 C52.69635298 45.23729392 52.69635298 45.23729392 47.4375 51.0625 C43.80644938 55.35878127 39.7828968 59.24311912 35.78613281 63.19433594 C31.65480783 67.29671994 27.72248087 71.51948666 24 76 C26.87472544 78.87472544 30.43055373 79.72551767 34.19140625 81.0546875 C35.87638818 81.67508496 37.56060952 82.29755127 39.24414062 82.921875 C41.88854509 83.89917081 44.53437724 84.8651642 47.19555664 85.79589844 C59.4944677 90.11891435 66.05162138 93.66354193 73 105 C84.42580521 117.62619176 98.82249175 121.99023102 115 125 C115 134.9 115 144.8 115 155 C111.19923039 153.7330768 108.06441013 152.65677462 104.57820129 150.9059906 C103.74970169 150.49239288 102.92120209 150.07879517 102.06759644 149.65266418 C101.17750885 149.20323959 100.28742126 148.753815 99.37036133 148.29077148 C98.41845413 147.81416077 97.46654694 147.33755005 96.48579407 146.84649658 C93.34934897 145.27503639 90.21573276 143.69801687 87.08203125 142.12109375 C84.90081333 141.02734883 82.71938843 139.93401658 80.5377655 138.84107971 C74.80140357 135.96625318 69.06728684 133.08697895 63.33380127 130.2064209 C54.14638035 125.59113251 44.95625323 120.9812447 35.76483727 116.37391853 C32.55148033 114.7621192 29.339498 113.14760499 26.12763977 111.53282166 C24.16562413 110.54840091 22.20356494 109.56406693 20.24145508 108.57983398 C19.3452948 108.12838516 18.44913452 107.67693634 17.52581787 107.21180725 C16.29575768 106.59564041 16.29575768 106.59564041 15.04084778 105.96702576 C14.32872037 105.60920234 13.61659296 105.25137892 12.88288593 104.88271236 C10.85159431 103.88588173 10.85159431 103.88588173 8 103 C8 121.15 8 139.3 8 158 C5.65811368 159.17094316 3.72917472 159.40084444 1.1328125 159.75390625 C0.16472656 159.88603516 -0.80335938 160.01816406 -1.80078125 160.15429688 C-2.81527344 160.28900391 -3.82976562 160.42371094 -4.875 160.5625 C-6.38513672 160.77036133 -6.38513672 160.77036133 -7.92578125 160.98242188 C-12.00857311 161.53275836 -15.87145014 162 -20 162 C-20.73681027 157.00679466 -21.40120388 152.01177258 -22 147 C-22.10183594 146.14921875 -22.20367187 145.2984375 -22.30859375 144.421875 C-22.65735461 138.71487917 -20.76210749 134.32347565 -18.38671875 129.1875 C-15.01445904 121.43605233 -13.44045013 114.80207775 -13.5 106.3125 C-13.50644531 105.34787842 -13.51289063 104.38325684 -13.51953125 103.3894043 C-13.8570905 90.10578142 -18.43858302 78.56141698 -28 69 C-28.20902128 67.6743388 -28.35798501 66.33910067 -28.48071289 65.00268555 C-28.56072037 64.15477951 -28.64072784 63.30687347 -28.72315979 62.43327332 C-28.80549362 61.51041031 -28.88782745 60.5875473 -28.97265625 59.63671875 C-29.06002548 58.69319046 -29.14739471 57.74966217 -29.2374115 56.77754211 C-29.42185946 54.77612315 -29.60413223 52.77450274 -29.78442383 50.77270508 C-30.0604148 47.71063491 -30.34308839 44.64923986 -30.62695312 41.58789062 C-30.80508316 39.64586958 -30.98283003 37.70381335 -31.16015625 35.76171875 C-31.24451431 34.84492844 -31.32887238 33.92813812 -31.41578674 32.98356628 C-31.49264206 32.12620377 -31.56949738 31.26884125 -31.64868164 30.38549805 C-31.71672501 29.63350632 -31.78476837 28.88151459 -31.85487366 28.10673523 C-31.9948062 26.07539613 -32 24.03615315 -32 22 C-38.435 23.485 -38.435 23.485 -45 25 C-45 20.71 -45 16.42 -45 12 C-43.97003906 11.69707031 -42.94007813 11.39414063 -41.87890625 11.08203125 C-41.19884521 10.88198486 -40.51878418 10.68193848 -39.81811523 10.47583008 C-38.29815771 10.02884181 -36.77813685 9.58206891 -35.25805664 9.13549805 C-31.29294469 7.97029555 -27.32886357 6.80183591 -23.3671875 5.625 C-22.6239624 5.40481201 -21.8807373 5.18462402 -21.11499023 4.95776367 C-19.70524602 4.540009 -18.29587753 4.12098345 -16.88696289 3.70043945 C-4.37932367 0 -4.37932367 0 0 0 Z " fill="#FDCA05" transform="translate(300,69)"/>
<path d="M0 0 C8.25 0 16.5 0 25 0 C27.48990765 13.74060149 29.71434302 27.49023301 31.6875 41.3125 C31.7957309 42.06616852 31.90396179 42.81983704 32.01547241 43.59634399 C32.70261975 48.39436255 33.35847734 53.19567304 34 58 C34.15041748 59.03189453 34.30083496 60.06378906 34.45581055 61.12695312 C34.57093994 62.00931641 34.68606934 62.89167969 34.8046875 63.80078125 C34.9063623 64.53337158 35.00803711 65.26596191 35.11279297 66.02075195 C34.92117316 69.38322337 32.89259719 71.35005068 30.7578125 73.8125 C20.94138759 86.02849545 18.58855008 100.86353121 20 116 C22.30331692 129.64166866 28.70643308 140.87688625 40 149 C41.6543249 149.83734291 43.32080826 150.6512118 45 151.4375 C48.77576546 153.3417991 48.77576546 153.3417991 49.78515625 156.3046875 C50.03660406 158.57834232 50.12429328 160.71797541 50 163 C40.80351362 161.99910199 31.64186351 160.85890839 22.5 159.4375 C21.66944092 159.31076904 20.83888184 159.18403809 19.9831543 159.0534668 C14.12177062 158.12177062 14.12177062 158.12177062 13 157 C12.51790414 154.14734358 12.08789049 151.30195689 11.6875 148.4375 C10.54999828 140.54109674 9.28456669 132.67572706 7.9375 124.8125 C6.30787212 115.23526682 4.99776882 105.66260334 4 96 C1.93906455 99.09140318 0.74448155 101.95894857 -0.6015625 105.41796875 C-0.8428891 106.03521317 -1.0842157 106.65245758 -1.33285522 107.28840637 C-2.10026323 109.25348026 -2.86269047 111.2204434 -3.625 113.1875 C-4.14550565 114.52291422 -4.66633531 115.85820221 -5.1875 117.19335938 C-6.46209145 120.46078499 -7.73222408 123.72992298 -9 127 C-9.66 127 -10.32 127 -11 127 C-13.38634736 121.96550064 -15.77073048 116.93007754 -18.15332031 111.89379883 C-18.9636568 110.18163103 -19.7745238 108.4697142 -20.5859375 106.75805664 C-21.75401063 104.29379453 -22.92015549 101.8286279 -24.0859375 99.36328125 C-24.62823502 98.22080681 -24.62823502 98.22080681 -25.18148804 97.05525208 C-26.90366045 93.40859112 -28.55972893 89.77012133 -30 86 C-31.8108651 87.8108651 -31.57979136 90.63467713 -31.90234375 93.0859375 C-32.97939342 100.9576833 -34.24872321 108.78912063 -35.5625 116.625 C-35.78591486 117.97263842 -36.00922252 119.32029462 -36.23242188 120.66796875 C-36.55243164 122.58416016 -36.55243164 122.58416016 -36.87890625 124.5390625 C-37.0704126 125.68584473 -37.26191895 126.83262695 -37.45922852 128.01416016 C-37.88769856 130.37993381 -38.37518936 132.68028849 -39 135 C-43.69432655 135.10391426 -47.98085899 134.78835235 -52.58984375 133.90625 C-53.78544922 133.68066406 -54.98105469 133.45507812 -56.21289062 133.22265625 C-57.44201172 132.98417969 -58.67113281 132.74570313 -59.9375 132.5 C-61.19369141 132.26152344 -62.44988281 132.02304688 -63.74414062 131.77734375 C-66.83055851 131.19057229 -69.91573378 130.59796024 -73 130 C-72.93578857 129.30817627 -72.87157715 128.61635254 -72.80541992 127.90356445 C-72.71881104 126.962146 -72.63220215 126.02072754 -72.54296875 125.05078125 C-72.44935059 124.04354004 -72.35573242 123.03629883 -72.25927734 121.99853516 C-72.04253818 119.49195285 -71.8825825 116.99176679 -71.73828125 114.48046875 C-70.74873318 102.87348057 -66.66467773 97.03481249 -57.95703125 89.4296875 C-56.98121094 88.62789063 -56.00539063 87.82609375 -55 87 C-56.51261163 83.73284187 -57.63057002 82.45370415 -60.6875 80.5625 C-62.4744873 79.07810974 -62.4744873 79.07810974 -64 77 C-64.17614746 74.24794006 -64.17614746 74.24794006 -63.83398438 71.05883789 C-63.65101807 69.31934372 -63.65101807 69.31934372 -63.46435547 67.54470825 C-62.76012665 62.16890058 -61.92020718 56.83345653 -60.96875 51.49609375 C-60.67478333 49.80662376 -60.67478333 49.80662376 -60.37487793 48.08302307 C-59.755635 44.53348697 -59.12778667 40.98553375 -58.5 37.4375 C-58.0788979 35.02548295 -57.65832055 32.61337423 -57.23828125 30.20117188 C-56.83640999 27.90356314 -56.43408273 25.60603411 -56.03125 23.30859375 C-55.84268433 22.23258408 -55.65411865 21.1565744 -55.45983887 20.04795837 C-55.28295532 19.04914139 -55.10607178 18.0503244 -54.92382812 17.02124023 C-54.6918573 15.70771828 -54.6918573 15.70771828 -54.4552002 14.36766052 C-54.04413138 12.22954323 -53.52806657 10.11226628 -53 8 C-41.45 8 -29.9 8 -18 8 C-14.625 22.625 -14.625 22.625 -13.61328125 28.17578125 C-13.2894043 29.94018555 -13.2894043 29.94018555 -12.95898438 31.74023438 C-12.63897461 33.50850586 -12.63897461 33.50850586 -12.3125 35.3125 C-12.08755859 36.54162109 -11.86261719 37.77074219 -11.63085938 39.03710938 C-11.08457046 42.02426366 -10.54098837 45.01188206 -10 48 C-9.67 48 -9.34 48 -9 48 C-8.901996 47.45764709 -8.803992 46.91529419 -8.70301819 46.35650635 C-7.68259929 40.71101337 -6.66032095 35.06585936 -5.63696289 29.42089844 C-5.25530071 27.31421402 -4.8741125 25.20744367 -4.4934082 23.10058594 C-3.9460717 20.07203818 -3.39703069 17.04380366 -2.84765625 14.015625 C-2.59291283 12.60292328 -2.59291283 12.60292328 -2.33302307 11.16168213 C-2.17293259 10.28107117 -2.0128421 9.40046021 -1.84790039 8.49316406 C-1.70800186 7.72039124 -1.56810333 6.94761841 -1.42396545 6.15142822 C-1.01703498 4.08644463 -0.51046401 2.04185605 0 0 Z " fill="#FDCA06" transform="translate(557,67)"/>
<path d="M0 0 C2.15556299 1.91605599 4.06419105 3.85491441 6 6 C4.64991643 8.98911944 3.13092001 11.14633726 0.8671875 13.51171875 C0.23361328 14.17880859 -0.39996094 14.84589844 -1.05273438 15.53320312 C-1.73658203 16.24412109 -2.42042969 16.95503906 -3.125 17.6875 C-4.57560678 19.21215781 -6.02612503 20.73689987 -7.4765625 22.26171875 C-8.22325195 23.04337402 -8.96994141 23.8250293 -9.73925781 24.63037109 C-13.34134833 28.40595323 -16.9216522 32.20192909 -20.5 36 C-21.1693457 36.70850098 -21.83869141 37.41700195 -22.52832031 38.14697266 C-26.67444728 42.54768637 -30.71925329 47.00557173 -34.6171875 51.62890625 C-36 53 -36 53 -38 53 C-38 53.66 -38 54.32 -38 55 C-25.16915436 53.68051587 -15.16682436 49.11290186 -6 40 C-3.06768431 41.34048717 -0.83242887 42.84818486 1.5625 45 C2.58537109 45.91458984 2.58537109 45.91458984 3.62890625 46.84765625 C4.41136719 47.55792969 5.19382812 48.26820313 6 49 C6.97839844 49.88558594 7.95679688 50.77117187 8.96484375 51.68359375 C11.6485778 54.11654771 14.32566294 56.5567178 17 59 C16.31795275 64.05385833 12.91439108 65.90949502 9.0625 68.84765625 C-1.05498444 75.95828626 -11.10893731 80.64344182 -23 84 C-24.21300781 84.36609375 -25.42601562 84.7321875 -26.67578125 85.109375 C-32.16342738 86.44688952 -37.6928709 86.36826587 -43.3125 86.375 C-44.90868164 86.41173828 -44.90868164 86.41173828 -46.53710938 86.44921875 C-58.31013895 86.49231709 -67.31963268 82.41831276 -77 76 C-78.3303125 75.13375 -78.3303125 75.13375 -79.6875 74.25 C-89.72468169 64.48409349 -93.35883077 53.27744017 -93.5625 39.5625 C-93.46202169 26.63619418 -89.97510472 16.5783195 -81 7 C-80.37738281 6.32453125 -79.75476563 5.6490625 -79.11328125 4.953125 C-57.91160489 -15.88509405 -23.35489075 -18.20483792 0 0 Z M-55 24 C-58.15179202 26.92666402 -58.55804208 29.98255987 -58.94921875 34.09375 C-59.00595075 36.22338215 -58.74947266 38.00140623 -58 40 C-54.0031697 38.41985779 -51.71520262 35.78737486 -48.875 32.625 C-48.00617188 31.66851562 -47.13734375 30.71203125 -46.2421875 29.7265625 C-44.40444418 27.4918154 -43.1141912 25.64150947 -42 23 C-48.72895399 21.74258746 -48.72895399 21.74258746 -55 24 Z " fill="#FDC906" transform="translate(465,94)"/>
<path d="M0 0 C8.97084223 6.48167996 14.93535769 14.37567101 18 25 C20.31137675 39.90728898 16.67074401 53.59734465 8.25 65.9375 C-1.66154942 78.41109143 -15.006513 87.50663335 -31 90 C-44.15538119 91.13353406 -53.84362175 88.48074682 -64 80 C-71.39437575 73.3249215 -75.74450926 65.20229531 -76.4453125 55.203125 C-76.9994724 40.2902862 -73.83227193 29.16556005 -65 17 C-64.48824219 16.29101562 -63.97648438 15.58203125 -63.44921875 14.8515625 C-48.83427711 -3.49871161 -21.04575098 -12.16353888 0 0 Z " fill="#FDC906" transform="translate(257,139)"/>
<path d="M0 0 C0.77214844 0.474375 1.54429687 0.94875 2.33984375 1.4375 C10.59840938 7.15391148 15.74150379 15.2622047 18 25 C19.71000491 40.24206299 15.66786411 53.56823655 6.12109375 65.60546875 C-0.61715659 73.21237015 -7.63833523 78.02500742 -17 82 C-17.78890625 82.34160156 -18.5778125 82.68320313 -19.390625 83.03515625 C-29.00510193 86.55065377 -40.92150733 86.62561871 -50.5 83 C-59.70051297 78.50701973 -65.79737463 72.27873759 -70 63 C-70.31839844 62.38769531 -70.63679687 61.77539062 -70.96484375 61.14453125 C-75.3454482 51.67677325 -73.5607244 40.53300567 -70.25390625 31.02734375 C-63.89503944 15.67493946 -52.14937163 4.33810663 -37.0625 -2.5 C-26.08549832 -6.08432708 -9.9299267 -6.33103486 0 0 Z " fill="#FCC906" transform="translate(661,128)"/>
<path d="M0 0 C2.93815692 2.74838115 5.02854994 5.41905729 7.03125 8.90234375 C7.58876953 9.8651123 8.14628906 10.82788086 8.72070312 11.81982422 C9.30787109 12.84865723 9.89503906 13.87749023 10.5 14.9375 C11.11294922 15.99984863 11.72589844 17.06219727 12.35742188 18.15673828 C14.2455646 21.43370839 16.1242368 24.71593041 18 28 C18.56976562 28.99628418 19.13953125 29.99256836 19.7265625 31.01904297 C24.00402315 38.50079804 24.00402315 38.50079804 25.91601562 41.87084961 C29.19074409 47.63383295 32.56796283 53.32935219 36 59 C40.59322278 58.45318776 43.90438648 57.09331358 48 55 C48.99 55 49.98 55 51 55 C51.29656494 55.68400879 51.59312988 56.36801758 51.89868164 57.07275391 C53.28266625 60.25857022 54.67256471 63.44177564 56.0625 66.625 C56.52849609 67.70007813 56.99449219 68.77515625 57.47460938 69.8828125 C59.97584157 75.59991466 62.58304564 81.227223 65.40625 86.79296875 C69.00235137 93.90542222 72.25044348 101.14481149 75.45187378 108.44189453 C77.17823129 112.37514811 78.91694404 116.30292735 80.65625 120.23046875 C81.01327499 121.03688812 81.37029999 121.8433075 81.73814392 122.67416382 C85.57050289 131.31364925 89.49739823 139.90924203 93.4375 148.5 C94.10998619 149.96759165 94.78243143 151.43520206 95.45483398 152.90283203 C96.72330016 155.6708883 97.99214947 158.43876854 99.26123047 161.20654297 C101.68244351 166.48811472 104.09913518 171.77164151 106.5 177.0625 C106.86794678 177.86558594 107.23589355 178.66867187 107.61499023 179.49609375 C110 184.76941043 110 184.76941043 110 187 C114.0748778 185.69041215 118.14933378 184.37952145 122.22344971 183.06756592 C123.65429229 182.60698974 125.08524073 182.14674232 126.51629639 181.68682861 C136.72483044 178.40820908 136.72483044 178.40820908 146.890625 175 C147.70998535 174.71979004 148.5293457 174.43958008 149.37353516 174.15087891 C150.82865648 173.64942851 152.2816408 173.14171371 153.73193359 172.62646484 C157.27054406 171.40758032 160.25082333 170.72707143 164 171 C156.243138 177.54485231 148.58729269 181.13799027 138.94921875 184.20703125 C137.81345901 184.57728928 136.67769928 184.9475473 135.50752258 185.32902527 C133.12149103 186.10456735 130.73377251 186.87493656 128.34448242 187.64038086 C124.67818948 188.81548416 121.01752699 190.00695077 117.35742188 191.20117188 C115.03416409 191.95408199 112.71060657 192.706068 110.38671875 193.45703125 C109.28986252 193.81320023 108.19300629 194.1693692 107.06291199 194.53633118 C106.04788101 194.8605455 105.03285004 195.18475983 103.98706055 195.51879883 C102.64758614 195.94918205 102.64758614 195.94918205 101.28105164 196.38825989 C99 197 99 197 96 197 C87.25208461 177.6668559 78.51326999 158.33482324 70.13183594 138.83935547 C64.19973176 125.07487544 58.08376771 111.39205094 51.97705078 97.7043457 C47.5759051 87.83401251 43.21255093 77.95253344 39 68 C37.25 68.6875 35.5 69.375 33.75 70.0625 C28.73880666 72.0311831 28.73880666 72.0311831 26.06225586 71.91821289 C22.84584835 70.48611763 21.92628346 68.10757406 20.20703125 65.0859375 C19.85955841 64.48395538 19.51208557 63.88197327 19.15408325 63.26174927 C18.02845034 61.30598525 16.92066778 59.34070305 15.8125 57.375 C15.04311968 56.03241617 14.27236564 54.69061863 13.50024414 53.34960938 C11.9933805 50.73044693 10.4919068 48.10833009 8.99511719 45.48339844 C6.69502757 41.45709385 4.33525357 37.4688478 1.9375 33.5 C1.27878906 32.39914063 0.62007812 31.29828125 -0.05859375 30.1640625 C-1.45849168 27.88253872 -2.88123203 25.63612775 -4.34765625 23.3984375 C-4.72978271 22.80611328 -5.11190918 22.21378906 -5.50561523 21.60351562 C-6.54654559 19.99614661 -7.60463124 18.39992308 -8.6640625 16.8046875 C-10 14 -10 14 -9.99609375 11.43359375 C-8.70169444 8.27119856 -6.91553122 6.52592383 -4.4375 4.1875 C-3.61121094 3.39730469 -2.78492188 2.60710937 -1.93359375 1.79296875 C-1.29550781 1.20128906 -0.65742188 0.60960938 0 0 Z " fill="#1A366C" transform="translate(10,97)"/>
<path d="M0 0 C-1.06863226 9.06063735 -2.24863913 18.04070783 -4 27 C-3.40497177 27.05369751 -2.80994354 27.10739502 -2.19688416 27.16271973 C4.21675539 27.7691707 10.56657677 28.61820109 16.93359375 29.59375 C17.93334732 29.74533569 18.93310089 29.89692139 19.96315002 30.05310059 C22.05659783 30.3712217 24.14985286 30.69061381 26.24291992 31.01123047 C29.45238136 31.50227684 32.6626588 31.98770928 35.87304688 32.47265625 C37.91411347 32.7835197 39.95513092 33.09470602 41.99609375 33.40625 C42.9554332 33.55106812 43.91477264 33.69588623 44.90318298 33.84509277 C46.2358596 34.05035583 46.2358596 34.05035583 47.59545898 34.25976562 C48.37582016 34.37888306 49.15618134 34.49800049 49.96018982 34.62072754 C52 35 52 35 55 36 C55.06058594 34.87980469 55.12117187 33.75960937 55.18359375 32.60546875 C55.26801424 31.13280016 55.35266149 29.66014456 55.4375 28.1875 C55.47681641 27.44951172 55.51613281 26.71152344 55.55664062 25.95117188 C55.74381035 22.76928658 55.98720793 20.03837622 57 17 C57.66 17 58.32 17 59 17 C59.38333496 17.72179443 59.76666992 18.44358887 60.16162109 19.18725586 C61.89356637 22.44049024 63.63415312 25.68902095 65.375 28.9375 C65.97828125 30.07380859 66.5815625 31.21011719 67.203125 32.38085938 C67.78320312 33.46044922 68.36328125 34.54003906 68.9609375 35.65234375 C69.49509277 36.65257568 70.02924805 37.65280762 70.57958984 38.68334961 C71.78970921 41.11516809 71.78970921 41.11516809 74 42 C74.226875 41.21625 74.45375 40.4325 74.6875 39.625 C76.40660933 34.87698375 78.68084721 30.47897448 81 26 C83.17836574 29.26754861 83.42274632 30.92186476 83.8515625 34.76171875 C83.98046875 35.87998047 84.109375 36.99824219 84.2421875 38.15039062 C84.36851562 39.31763672 84.49484375 40.48488281 84.625 41.6875 C84.82609375 43.45577148 84.82609375 43.45577148 85.03125 45.25976562 C85.36143175 48.17244035 85.68403938 51.08575399 86 54 C107.98804164 58.0685284 129.9802619 62.1059659 152 66 C141.95663966 74.12381024 141.95663966 74.12381024 136.17236328 73.8815918 C135.06618652 73.71828369 133.96000977 73.55497559 132.8203125 73.38671875 C131.86798737 73.2476284 131.86798737 73.2476284 130.89642334 73.10572815 C121.12209439 71.63005145 111.39564865 69.82627265 101.67089844 68.05883789 C98.21626349 67.43137244 94.760561 66.810057 91.3046875 66.18945312 C89.10410198 65.79202467 86.90357876 65.39425108 84.703125 64.99609375 C83.67197571 64.81066513 82.64082642 64.62523651 81.57843018 64.43418884 C80.62603455 64.26053299 79.67363892 64.08687714 78.69238281 63.90795898 C77.85604309 63.75632797 77.01970337 63.60469696 76.15802002 63.44847107 C74 63 74 63 71 62 C70.67 56.72 70.34 51.44 70 46 C66.37 47.65 62.74 49.3 59 51 C55.535 45.06 55.535 45.06 52 39 C50.02 39.99 50.02 39.99 48 41 C40.26691073 44.86654464 31.54719829 42.62975945 23.38671875 41.28515625 C22.2953511 41.10995956 21.20398346 40.93476288 20.07954407 40.7542572 C17.78554497 40.38476867 15.49202675 40.01228345 13.19897461 39.63696289 C9.68254772 39.06168983 6.164694 38.49589798 2.64648438 37.93164062 C0.41397337 37.57086361 -1.81845167 37.20955415 -4.05078125 36.84765625 C-5.10388992 36.6778273 -6.1569986 36.50799835 -7.24201965 36.33302307 C-8.21700912 36.17293259 -9.1919986 36.0128421 -10.1965332 35.84790039 C-11.05398636 35.70800186 -11.91143951 35.56810333 -12.7948761 35.42396545 C-15 35 -15 35 -18 34 C-17.01 26.41 -16.02 18.82 -15 11 C-17.083125 12.093125 -19.16625 13.18625 -21.3125 14.3125 C-28.55691198 18.00646227 -35.75406693 21 -44 21 C-44 18.36 -44 15.72 -44 13 C-43.1028125 12.84144531 -42.205625 12.68289062 -41.28125 12.51953125 C-28.3267885 10.09726107 -15.92353893 6.75249268 -4.0390625 0.91796875 C-2 0 -2 0 0 0 Z " fill="#21386E" transform="translate(472,181)"/>
<path d="M0 0 C0.33 0 0.66 0 1 0 C1.01417969 0.99257812 1.02835938 1.98515625 1.04296875 3.0078125 C1.45108474 17.08258196 4.85589686 28.97153721 14 40 C14.52207031 40.63421875 15.04414063 41.2684375 15.58203125 41.921875 C24.38689552 51.60508339 36.35419629 56.42630761 49.1953125 57.34765625 C65.8026246 58.11015414 81.95781065 53.30912508 94.5625 42.125 C95.18253906 41.52945313 95.80257812 40.93390625 96.44140625 40.3203125 C98 39 98 39 100 39 C100.99 50.385 100.99 50.385 102 62 C104.74828125 61.57847656 107.4965625 61.15695313 110.328125 60.72265625 C113.02882558 60.31128894 115.72973335 59.90130835 118.43066406 59.49145508 C120.28895739 59.20872029 122.14703657 58.92457387 124.00488281 58.63891602 C133.98396077 57.1055324 143.91017995 55.59130192 154 55 C146.31207565 61.00643885 138.54303686 63.74462463 128.953125 65.01953125 C127.93829041 65.16782883 126.92345581 65.3161264 125.87786865 65.46891785 C122.67065434 65.93299807 119.46060699 66.37258162 116.25 66.8125 C114.08181506 67.12545897 111.91384342 67.43989948 109.74609375 67.75585938 C107.66946275 68.05342577 105.59264542 68.34969531 103.515625 68.64453125 C102.54989563 68.78196243 101.58416626 68.91939362 100.58917236 69.06098938 C99.68092712 69.18499619 98.77268188 69.30900299 97.83691406 69.43676758 C96.64971771 69.60067741 96.64971771 69.60067741 95.4385376 69.76789856 C92.63728808 70.03452313 89.81390965 70 87 70 C86.01 61.09 86.01 61.09 85 52 C82.89625 53.546875 82.89625 53.546875 80.75 55.125 C65.71656561 65.57017101 50.11532824 70.19327616 31.76953125 67.53125 C18.75683641 64.70313521 7.94908253 57.59877671 0 47 C0 46.34 0 45.68 0 45 C-0.66 45 -1.32 45 -2 45 C-4.0253388 38.00712718 -6.02696359 31.00781658 -8 24 C-8.19625977 23.30438965 -8.39251953 22.6087793 -8.59472656 21.89208984 C-9.05426931 20.24384548 -9.49686781 18.59090022 -9.9375 16.9375 C-10.17339844 16.05964844 -10.40929687 15.18179688 -10.65234375 14.27734375 C-11.04425139 11.71012853 -11.04937973 10.37923882 -10 8 C-7.96875 6.11328125 -7.96875 6.11328125 -5.5 4.3125 C-4.6853125 3.71050781 -3.870625 3.10851562 -3.03125 2.48828125 C-2.3609375 1.99714844 -1.690625 1.50601563 -1 1 C-0.67 0.67 -0.34 0.34 0 0 Z " fill="#1C3064" transform="translate(167,184)"/>
<path d="M0 0 C-0.66 7.59 -1.32 15.18 -2 23 C4.11742214 23.61692613 4.11742214 23.61692613 10.2355957 24.22631836 C10.99960693 24.30503174 11.76361816 24.38374512 12.55078125 24.46484375 C13.72120972 24.58267212 13.72120972 24.58267212 14.9152832 24.70288086 C17 25 17 25 20 26 C21.35906836 26.1981079 22.72339929 26.36164151 24.08984375 26.5 C24.87423828 26.5825 25.65863281 26.665 26.46679688 26.75 C27.28212891 26.8325 28.09746094 26.915 28.9375 27 C30.5510498 27.16404637 32.16434423 27.33062843 33.77734375 27.5 C34.49140381 27.5721875 35.20546387 27.644375 35.94116211 27.71875 C38 28 38 28 42 29 C42 35.27 42 41.54 42 48 C43.258125 48.20625 44.51625 48.4125 45.8125 48.625 C53.56956928 50.17202513 61.02593536 52.77037124 68.53857422 55.20654297 C72.41337173 56.45560981 76.3001865 57.66556455 80.1875 58.875 C81.51434287 59.28899855 82.84116786 59.70305442 84.16796875 60.1171875 C85.10253906 60.40851563 86.03710938 60.69984375 87 61 C87 61.66 87 62.32 87 63 C85.34948289 64.04674339 83.67853819 65.0613067 82 66.0625 C81.071875 66.63097656 80.14375 67.19945312 79.1875 67.78515625 C72.57358903 70.30589928 65.44247499 67.40983118 58.9765625 65.3125 C58.14917572 65.04993408 57.32178894 64.78736816 56.46932983 64.5168457 C53.85242536 63.68440371 51.23879025 62.84216235 48.625 62 C46.84784827 61.43429227 45.07050612 60.86918235 43.29296875 60.3046875 C41.60399533 59.76616206 39.91518714 59.2271181 38.2265625 58.6875 C37.43077789 58.43331299 36.63499329 58.17912598 35.81509399 57.91723633 C30.23726251 56.11863126 30.23726251 56.11863126 28 55 C28 49.06 28 43.12 28 37 C26.49953125 36.81824219 24.9990625 36.63648438 23.453125 36.44921875 C10.26744575 34.83563965 -2.87468866 33.04720011 -16 31 C-16.11626501 25.36841361 -15.86735628 20.02110608 -15 14.4375 C-14.814375 13.21933594 -14.62875 12.00117188 -14.4375 10.74609375 C-14.2209375 9.38677734 -14.2209375 9.38677734 -14 8 C-15.051875 8.474375 -16.10375 8.94875 -17.1875 9.4375 C-22.55919201 11.71966174 -27.14926545 12.11472029 -33 12 C-33.33 10.02 -33.66 8.04 -34 6 C-33.13217896 5.94054199 -33.13217896 5.94054199 -32.24682617 5.87988281 C-17.71300988 4.97875775 -17.71300988 4.97875775 -3.86328125 0.8046875 C-2 0 -2 0 0 0 Z " fill="#21386F" transform="translate(654,219)"/>
<path d="M0 0 C4.64538625 1.42062238 8.9000672 3.32462585 13.21484375 5.52734375 C14.25228477 6.04996544 14.25228477 6.04996544 15.3106842 6.58314514 C17.52157933 7.69743851 19.72974265 8.81700432 21.9375 9.9375 C31.60843134 14.836685 41.31007997 19.65020671 51.1015625 24.3046875 C63.29516197 30.10422551 75.37111729 36.12870538 87.4375 42.1875 C89.54873213 43.24563427 91.66005992 44.30357769 93.77148438 45.36132812 C98.84875378 47.90536778 103.92486563 50.45170402 109 53 C106.26955356 55.06194797 103.54953908 57.0321227 100.625 58.8125 C99.89539063 59.27269531 99.16578125 59.73289063 98.4140625 60.20703125 C93.18827292 61.9235932 87.55120262 57.88536439 82.89674377 55.54884338 C81.99366989 55.09057663 81.09059601 54.63230988 80.16015625 54.16015625 C79.20217636 53.67856552 78.24419647 53.19697479 77.25718689 52.70079041 C74.19035707 51.15849944 71.12623746 49.6109236 68.0625 48.0625 C55.08466079 41.51292643 42.08919294 35.02125823 28.95387268 28.79200745 C2.01573708 16.01573708 2.01573708 16.01573708 0 14 C-0.07271741 11.64686445 -0.08370868 9.29166332 -0.0625 6.9375 C-0.05347656 5.64714844 -0.04445313 4.35679687 -0.03515625 3.02734375 C-0.02355469 2.02832031 -0.01195312 1.02929688 0 0 Z " fill="#21386E" transform="translate(320,193)"/>
<path d="M0 0 C4.38498786 3.20010816 7.93339826 6.86699943 8.8359375 12.33984375 C9.60120124 21.63233201 9.60669591 29.61114945 3.8359375 37.33984375 C-1.155086 43.07277614 -6.59848459 48.45409356 -13.1640625 52.33984375 C-14.6490625 51.84484375 -14.6490625 51.84484375 -16.1640625 51.33984375 C-17.10989147 48.96916921 -17.85398514 46.7243331 -18.5390625 44.27734375 C-18.97358453 42.80587915 -19.4084908 41.33452797 -19.84375 39.86328125 C-20.06256836 39.10885742 -20.28138672 38.35443359 -20.50683594 37.57714844 C-21.50795067 34.16919322 -22.58954197 30.78769756 -23.6640625 27.40234375 C-26.27748205 19.08162358 -28.72849599 10.71404689 -31.1640625 2.33984375 C-24.37388978 -5.5224615 -8.50299063 -4.5772804 0 0 Z M-16.1640625 12.33984375 C-14.27786428 19.37629952 -12.29478555 26.37343719 -10.1640625 33.33984375 C-9.5040625 33.33984375 -8.8440625 33.33984375 -8.1640625 33.33984375 C-5.7365712 27.91368672 -5.81542726 23.03733901 -7.1640625 17.33984375 C-9.21732301 14.33328372 -10.27053577 13.5394333 -13.8046875 12.75 C-14.58328125 12.61464844 -15.361875 12.47929687 -16.1640625 12.33984375 Z " fill="#3D5BA4" transform="translate(149.1640625,118.66015625)"/>
<path d="M0 0 C8.25 0 16.5 0 25 0 C27.48990765 13.74060149 29.71434302 27.49023301 31.6875 41.3125 C31.7957309 42.06616852 31.90396179 42.81983704 32.01547241 43.59634399 C32.70261975 48.39436255 33.35847734 53.19567304 34 58 C34.15041748 59.03189453 34.30083496 60.06378906 34.45581055 61.12695312 C34.57093994 62.00931641 34.68606934 62.89167969 34.8046875 63.80078125 C34.9063623 64.53337158 35.00803711 65.26596191 35.11279297 66.02075195 C34.92117316 69.38322337 32.89259719 71.35005068 30.7578125 73.8125 C20.94138759 86.02849545 18.58855008 100.86353121 20 116 C22.30331692 129.64166866 28.70643308 140.87688625 40 149 C41.6543249 149.83734291 43.32080826 150.6512118 45 151.4375 C48.77576546 153.3417991 48.77576546 153.3417991 49.78515625 156.3046875 C50.0625 158.8125 50.0625 158.8125 50 163 C44.39 162.34 38.78 161.68 33 161 C33 160.67 33 160.34 33 160 C34.65 160 36.3 160 38 160 C38 159.34 38 158.68 38 158 C37.27554688 157.74992188 36.55109375 157.49984375 35.8046875 157.2421875 C26.36872144 153.06302705 20.07972598 144.16585651 16 135 C10.49281349 119.45894845 10.53842335 104.29259541 17.68359375 89.26171875 C22.06334565 80.94489954 22.06334565 80.94489954 25.21875 77.76171875 C29.17129417 71.63354171 26.85650414 62.60293002 25.7578125 55.6953125 C25.62937958 54.85008026 25.50094666 54.00484802 25.36862183 53.13400269 C24.96101829 50.46321527 24.54313081 47.79415718 24.125 45.125 C23.85220053 43.34515374 23.58006036 41.56520629 23.30859375 39.78515625 C22.06596283 31.67556268 20.80083154 23.57507802 19.32763672 15.50341797 C19 13 19 13 19 7 C12.4 7 5.8 7 -1 7 C-0.67 4.69 -0.34 2.38 0 0 Z " fill="#C49F0C" transform="translate(557,67)"/>
<path d="M0 0 C7.98247513 6.85657927 15.29614802 15.39254924 16.74609375 26.21679688 C17.98277868 43.60767877 13.06447206 58.31017886 2.46484375 72.1171875 C2.13484375 71.4571875 1.80484375 70.7971875 1.46484375 70.1171875 C2.390625 67.69140625 2.390625 67.69140625 3.77734375 64.8046875 C9.17568192 53.46663055 11.87185696 41.30269533 8.59375 28.79296875 C2.88651428 14.17870286 -8.07075862 4.32982595 -22.1640625 -2.078125 C-41.56468668 -9.70282446 -64.50636669 -8.45006592 -84.53515625 -3.8828125 C-85.61410156 -3.64135498 -85.61410156 -3.64135498 -86.71484375 -3.39501953 C-99.62143227 -0.40663905 -111.5094208 4.64065576 -123.53515625 10.1171875 C-124.25832031 10.44493164 -124.98148438 10.77267578 -125.7265625 11.11035156 C-129.34212987 12.75268298 -132.94552366 14.41893831 -136.53515625 16.1171875 C-136.53515625 15.1271875 -136.53515625 14.1371875 -136.53515625 13.1171875 C-119.30970589 3.10316363 -101.93274885 -5.03882059 -82.53515625 -9.8828125 C-81.23145934 -10.25672813 -79.92808825 -10.63178118 -78.625 -11.0078125 C-53.07576971 -17.95929631 -21.41156261 -16.66391804 0 0 Z " fill="#C49F0B" transform="translate(167.53515625,87.8828125)"/>
<path d="M0 0 C2.93815692 2.74838115 5.02854994 5.41905729 7.03125 8.90234375 C7.58876953 9.8651123 8.14628906 10.82788086 8.72070312 11.81982422 C9.30787109 12.84865723 9.89503906 13.87749023 10.5 14.9375 C11.11294922 15.99984863 11.72589844 17.06219727 12.35742188 18.15673828 C14.2455646 21.43370839 16.1242368 24.71593041 18 28 C18.56976562 28.99628418 19.13953125 29.99256836 19.7265625 31.01904297 C24.00402315 38.50079804 24.00402315 38.50079804 25.91601562 41.87084961 C28.3154671 46.09348945 30.74487279 50.29702783 33.21875 54.4765625 C33.70279297 55.29463379 34.18683594 56.11270508 34.68554688 56.95556641 C35.96849832 59.11007877 35.96849832 59.11007877 38 61 C37.36191406 61.62648437 36.72382812 62.25296875 36.06640625 62.8984375 C35.24011719 63.71570313 34.41382813 64.53296875 33.5625 65.375 C32.73878906 66.18710938 31.91507813 66.99921875 31.06640625 67.8359375 C28.96565328 69.82348515 28.96565328 69.82348515 28 72 C26.23706055 71.86962891 26.23706055 71.86962891 24 71 C22.12817383 68.46240234 22.12817383 68.46240234 20.20703125 65.0859375 C19.85955841 64.48395538 19.51208557 63.88197327 19.15408325 63.26174927 C18.02845034 61.30598525 16.92066778 59.34070305 15.8125 57.375 C15.04311968 56.03241617 14.27236564 54.69061863 13.50024414 53.34960938 C11.9933805 50.73044693 10.4919068 48.10833009 8.99511719 45.48339844 C6.69502757 41.45709385 4.33525357 37.4688478 1.9375 33.5 C1.27878906 32.39914063 0.62007812 31.29828125 -0.05859375 30.1640625 C-1.45849168 27.88253872 -2.88123203 25.63612775 -4.34765625 23.3984375 C-4.72978271 22.80611328 -5.11190918 22.21378906 -5.50561523 21.60351562 C-6.54654559 19.99614661 -7.60463124 18.39992308 -8.6640625 16.8046875 C-10 14 -10 14 -9.99609375 11.43359375 C-8.70169444 8.27119856 -6.91553122 6.52592383 -4.4375 4.1875 C-3.61121094 3.39730469 -2.78492188 2.60710937 -1.93359375 1.79296875 C-1.29550781 1.20128906 -0.65742188 0.60960938 0 0 Z " fill="#0E4E8B" transform="translate(10,97)"/>
<path d="M0 0 C0.94915283 0.39940796 0.94915283 0.39940796 1.91748047 0.80688477 C3.81801698 1.60556383 5.71919995 2.40270545 7.62084961 3.19873047 C9.80562951 4.11434158 11.98871874 5.03399654 14.17016602 5.95751953 C19.16624948 8.05746623 24.13680647 10.10257196 29.28515625 11.80078125 C38.55788679 14.89643646 43.57856686 17.54713717 49.08984375 26.07421875 C56.38759799 37.25216952 69.57799396 43.90587899 82.25976562 46.93847656 C85.827594 47.68665356 89.41606711 48.33322179 93 49 C93 58.9 93 68.8 93 79 C87 77 87 77 85 75 C84.86474609 72.93701172 84.86474609 72.93701172 85.0234375 70.4296875 C85.075 69.53378906 85.1265625 68.63789063 85.1796875 67.71484375 C85.24414062 66.77769531 85.30859375 65.84054688 85.375 64.875 C85.46007812 63.45767578 85.46007812 63.45767578 85.546875 62.01171875 C85.68857097 59.67373519 85.83999783 57.33679056 86 55 C85.43007324 55.02392822 84.86014648 55.04785645 84.27294922 55.07250977 C68.6106946 55.4494613 55.83757474 46.66263024 44.484375 36.69921875 C42 34 42 34 40.86499023 31.78222656 C35.3051369 21.59782232 24.85180017 19.15074285 14.5625 15.375 C12.6662069 14.65264892 10.77101009 13.92741294 8.87695312 13.19921875 C4.26329056 11.43257792 -0.36352294 9.70581665 -5 8 C-3.58208437 5.06553114 -2.01667393 2.56667591 0 0 Z " fill="#C59F0B" transform="translate(322,145)"/>
<path d="M0 0 C1.21236328 0.01353516 1.21236328 0.01353516 2.44921875 0.02734375 C3.37154297 0.04474609 3.37154297 0.04474609 4.3125 0.0625 C3.755625 0.454375 3.19875 0.84625 2.625 1.25 C-0.58349544 3.7647667 -3.84411057 6.37572114 -5.6875 10.0625 C-5.86050428 13.89115998 -5.81515454 17.65458044 -3.3515625 20.73046875 C0.83676306 24.21392977 3.71320381 25.39004692 9.15234375 25.26171875 C12.85174908 24.92054394 15.16905756 24.05737693 18.3125 22.0625 C20.04166996 19.18565087 21.24086504 16.23746816 22.3125 13.0625 C24.3125 14.0625 24.3125 14.0625 24.9140625 15.86328125 C26.16451105 22.76526687 25.66756522 27.93386033 21.93359375 33.984375 C17.37406992 39.82935495 11.42268811 43.41259803 4.0703125 44.34765625 C-2.83747958 44.76728848 -8.00574755 42.97115384 -13.6875 39.0625 C-18.3026317 34.87646112 -21.23557937 30.51136798 -22.05859375 24.23046875 C-22.19165926 18.25817543 -21.97067088 13.73535487 -18.38671875 8.81640625 C-13.28124728 3.54662076 -7.4233379 -0.10758461 0 0 Z " fill="#3767AB" transform="translate(634.6875,132.9375)"/>
<path d="M0 0 C1.22589844 0.01353516 1.22589844 0.01353516 2.4765625 0.02734375 C3.41628906 0.04474609 3.41628906 0.04474609 4.375 0.0625 C-0.375 4.0625 -0.375 4.0625 -2.625 4.0625 C-4.63349574 8.20502247 -5.10762992 11.4775158 -4.625 16.0625 C-2.50430932 20.07666449 -0.85181963 22.41539413 3.375 24.0625 C8.54027937 24.73351817 13.03978075 24.61089362 17.875 22.625 C21.23642703 19.17953729 22.25243346 15.67093107 23.375 11.0625 C26.93386348 15.08269764 26.81885628 18.12369912 26.66015625 23.3125 C26.01478928 29.53631295 23.08102637 34.94917216 18.375 39.0625 C11.45842932 43.8259378 3.51199557 44.26183041 -4.625 43.0625 C-11.19441062 40.67520755 -15.41552115 36.97426434 -18.78515625 30.89453125 C-21.33457936 25.33323153 -21.73573395 19.45430221 -19.82421875 13.6171875 C-16.08360568 6.03312664 -8.66237416 -0.1237482 0 0 Z " fill="#3767AB" transform="translate(229.625,144.9375)"/>
<path d="M0 0 C3 2.1875 3 2.1875 5 4 C3.47920927 7.50827915 1.4004327 9.95271646 -1.1875 12.75 C-1.99574219 13.63171875 -2.80398438 14.5134375 -3.63671875 15.421875 C-4.41660156 16.27265625 -5.19648438 17.1234375 -6 18 C-7.17161061 19.32899114 -8.33873392 20.6619604 -9.5 22 C-12.15582529 25.05019378 -14.85119453 28.0615058 -17.5625 31.0625 C-21.10696445 34.98932963 -24.57917903 38.96518552 -28 43 C-33.19855105 39.14489473 -37.28871703 35.39959074 -39 29 C-39.78960036 22.03198031 -40.13423891 14.91553309 -36.3984375 8.7421875 C-26.99162116 -2.97691889 -13.79320258 -6.89660129 0 0 Z M-26 12 C-29.15179202 14.92666402 -29.55804208 17.98255987 -29.94921875 22.09375 C-30.00595075 24.22338215 -29.74947266 26.00140623 -29 28 C-25.0031697 26.41985779 -22.71520262 23.78737486 -19.875 20.625 C-19.00617188 19.66851562 -18.13734375 18.71203125 -17.2421875 17.7265625 C-15.40444418 15.4918154 -14.1141912 13.64150947 -13 11 C-19.72895399 9.74258746 -19.72895399 9.74258746 -26 12 Z " fill="#3868AD" transform="translate(436,106)"/>
<path d="M0 0 C15.69350773 2.87206084 31.36790503 5.80941277 47 9 C48.68701867 13.71798864 49.80762468 18.4052061 50.8046875 23.30078125 C51.05256516 24.49274361 51.05256516 24.49274361 51.30545044 25.70878601 C51.83203047 28.24266781 52.3539171 30.77748251 52.875 33.3125 C53.55707275 36.62168426 54.24172588 39.93031611 54.9296875 43.23828125 C55.0992395 44.0538298 55.2687915 44.86937836 55.44348145 45.7096405 C56.74864538 51.93061029 58.18076515 58.11585361 59.65847778 64.29779053 C60.82667661 69.20232752 61.85607516 74.10121711 62.75 79.0625 C62.87503906 79.74892578 63.00007812 80.43535156 63.12890625 81.14257812 C63.42316752 82.76101511 63.71226316 84.38039034 64 86 C61.69 87.65 59.38 89.3 57 91 C55.15646155 85.92628614 54.05743725 80.84183605 53.01171875 75.5625 C52.82804749 74.65265854 52.64437622 73.74281708 52.45513916 72.80540466 C52.06427269 70.86861121 51.67495911 68.93150382 51.28707886 66.99411011 C50.28821806 62.00611035 49.278281 57.02037162 48.265625 52.03515625 C48.06883652 51.06626968 47.87204803 50.09738312 47.66929626 49.09913635 C46.01357616 40.98679005 44.24247418 32.90753832 42.32104492 24.85351562 C41.60409159 21.82730938 41 19.12302397 41 16 C40.25540527 15.86424561 39.51081055 15.72849121 38.74365234 15.58862305 C11.42595656 10.59776831 11.42595656 10.59776831 0 8 C0 5.36 0 2.72 0 0 Z " fill="#C49F0B" transform="translate(668,84)"/>
<path d="M0 0 C8.08817747 0.52588179 15.7568804 2.17222155 23.625 4.0625 C25.41744141 4.48499023 25.41744141 4.48499023 27.24609375 4.91601562 C30.16546291 5.60498675 33.08331873 6.2997536 36 7 C35.32466997 10.77709343 34.30989155 14.30778991 33.08911133 17.94384766 C32.69339935 19.12764511 32.29768738 20.31144257 31.88998413 21.53111267 C31.45402149 22.82543657 31.01803654 24.11975296 30.58203125 25.4140625 C30.12816434 26.76902748 29.67460854 28.12409671 29.22134399 29.47926331 C28.25661316 32.36213769 27.29022086 35.24444717 26.32247925 38.12631226 C23.78821017 45.67414425 21.2652769 53.22576885 18.7421875 60.77734375 C18.49159262 61.52708529 18.24099773 62.27682682 17.98280907 63.0492878 C13.74092961 75.74266951 9.56016932 88.45485658 5.4375 101.1875 C1.18821415 114.29802821 -3.08879633 127.39868361 -7.43356323 140.47793579 C-8.01429898 142.22691804 -8.59400971 143.97624101 -9.17263794 145.72592163 C-9.96231516 148.11257445 -10.75590781 150.49788608 -11.55078125 152.8828125 C-11.78545105 153.59396713 -12.02012085 154.30512177 -12.26190186 155.03782654 C-13.88537052 159.88537052 -13.88537052 159.88537052 -15 161 C-16.66617115 161.04063832 -18.33388095 161.042721 -20 161 C-19.34 160.67 -18.68 160.34 -18 160 C-17.64215567 157.67029981 -17.31400938 155.33601234 -17 153 C-16.24045847 150.38719518 -15.44383272 147.83325248 -14.56665039 145.26171875 C-14.31922089 144.52045242 -14.07179138 143.7791861 -13.81686401 143.01545715 C-12.999388 140.57088992 -12.1734925 138.12925426 -11.34765625 135.6875 C-10.76711931 133.95592211 -10.18716955 132.22414725 -9.60777283 130.4921875 C-8.07638884 125.91895962 -6.53811335 121.34808122 -4.99804688 116.777771 C-2.57143708 109.57282329 -0.15490856 102.36448287 2.26173401 95.15618706 C2.85575573 93.38455497 3.45002477 91.61300579 4.04454041 89.84153938 C8.73440759 75.86390806 13.3155314 61.8550116 17.80639648 47.81225586 C21.42894973 36.50589847 25.21868289 25.2540517 29 14 C28.17761841 13.84180786 28.17761841 13.84180786 27.33862305 13.68041992 C7.20834947 9.78784892 7.20834947 9.78784892 -2 7 C-1.34 4.69 -0.68 2.38 0 0 Z " fill="#C6A00B" transform="translate(748,102)"/>
<path d="M0 0 C0.33 13.2 0.66 26.4 1 40 C3.97 39.01 6.94 38.02 10 37 C11.32 37 12.64 37 14 37 C14.96205088 43.37358711 15.10655578 49.55929529 15 56 C10.23007601 55.2845114 5.63236792 54.33475008 1 53 C-0.35439668 50.29120665 -0.06501451 47.99066732 0 45 C-1.8253125 45.495 -1.8253125 45.495 -3.6875 46 C-7.07941584 46.91984158 -9.30208611 47 -13 47 C-13.66 33.8 -14.32 20.6 -15 7 C-2 0 -2 0 0 0 Z " fill="#0E4E8A" transform="translate(242,71)"/>
<path d="M0 0 C4.13190908 3.73075286 7.09820737 8.20327523 10.25 12.75 C11.08144531 13.93916016 11.08144531 13.93916016 11.9296875 15.15234375 C13.29006438 17.09908998 14.64669316 19.04833548 16 21 C13.33723438 24.13539315 10.1513073 25.59521549 6.49609375 27.3984375 C5.85817398 27.71527496 5.22025421 28.03211243 4.56300354 28.35855103 C2.52392615 29.36972259 0.48085263 30.37250047 -1.5625 31.375 C-3.57432056 32.36966228 -5.58531461 33.36598186 -7.59628296 34.36236572 C-8.90318678 35.0081957 -10.21130513 35.6515741 -11.5206604 36.29241943 C-14.38865485 37.69686083 -17.23520162 39.12521525 -20.05419922 40.62597656 C-20.93221191 41.09229492 -21.81022461 41.55861328 -22.71484375 42.0390625 C-23.45726318 42.44592285 -24.19968262 42.8527832 -24.96459961 43.27197266 C-27.39331723 44.14068274 -28.60793341 43.85972795 -31 43 C-31.7421875 40.7890625 -31.7421875 40.7890625 -32 38 C-30.4453125 35.7109375 -30.4453125 35.7109375 -28.125 33.375 C-24.7670177 29.86627236 -21.55702656 26.33787379 -18.5 22.5625 C-17.76265625 21.65242188 -17.0253125 20.74234375 -16.265625 19.8046875 C-15.51796875 18.87914063 -14.7703125 17.95359375 -14 17 C-12.41806694 15.06135654 -10.83475383 13.12383829 -9.25 11.1875 C-8.51394531 10.28773437 -7.77789062 9.38796875 -7.01953125 8.4609375 C-4.69461426 5.62786651 -2.35366256 2.80921015 0 0 Z " fill="#FAC808" transform="translate(442,20)"/>
<path d="M0 0 C8.97084223 6.48167996 14.93535769 14.37567101 18 25 C20.36909647 40.27955389 16.52241141 54.08795276 7.625 66.5 C6.4353741 68.01487942 5.23432593 69.52131513 4 71 C3.67 70.34 3.34 69.68 3 69 C3.92578125 66.57421875 3.92578125 66.57421875 5.3125 63.6875 C11.0229938 51.69382678 13.46647276 39.33448462 9.0625 26.35546875 C7.51782005 22.9310496 5.51462242 19.9391964 3.3046875 16.91015625 C2 15 2 15 1 12 C-0.71519747 10.97348627 -0.71519747 10.97348627 -3 10 C-4.010625 9.38125 -5.02125 8.7625 -6.0625 8.125 C-18.13459999 1.30721105 -29.70688137 0.23721911 -43.0703125 3.94140625 C-48.03597429 5.73566538 -52.46800981 8.32403869 -57 11 C-58.3269979 11.6791898 -59.65808253 12.3507853 -61 13 C-45.38676596 -3.62053946 -21.08066077 -12.18371523 0 0 Z " fill="#C49F0C" transform="translate(257,139)"/>
<path d="M0 0 C0.99 0.495 0.99 0.495 2 1 C-3.35507111 7.68737142 -8.86174864 14.13764567 -14.66015625 20.4453125 C-17.22050911 23.24075619 -19.71537316 26.08597909 -22.19921875 28.94921875 C-25.14725281 32.30652435 -28.1666811 35.59945083 -31.1796875 38.8984375 C-33.03676667 40.86723421 -33.03676667 40.86723421 -34 43 C-34.66 43 -35.32 43 -36 43 C-36.23976563 43.55945312 -36.47953125 44.11890625 -36.7265625 44.6953125 C-38.27350358 47.49499114 -40.18802481 49.54271084 -42.375 51.875 C-45.64276926 55.43218522 -48.50193901 58.87276881 -51 63 C-50.13375 64.04800781 -50.13375 64.04800781 -49.25 65.1171875 C-48.5075 66.02726562 -47.765 66.93734375 -47 67.875 C-46.2575 68.77992187 -45.515 69.68484375 -44.75 70.6171875 C-43 73 -43 73 -43 75 C-45.10016623 76.17441535 -47.20458755 77.33964012 -49.3125 78.5 C-49.90740234 78.83386719 -50.50230469 79.16773437 -51.11523438 79.51171875 C-53.95828844 81.06825114 -55.70660988 82 -59 82 C-59.15275391 81.12601563 -59.15275391 81.12601563 -59.30859375 80.234375 C-60.11517153 77.62780725 -61.24157009 76.26464586 -63.0625 74.25 C-63.61035156 73.63640625 -64.15820312 73.0228125 -64.72265625 72.390625 C-65.14417969 71.93171875 -65.56570313 71.4728125 -66 71 C-64.50442084 65.9771115 -61.50108163 63.03153585 -57.9375 59.375 C-53.12467603 54.32411384 -48.60485274 49.16027393 -44.2421875 43.7109375 C-41.76093371 40.71095469 -39.15134044 37.8484797 -36.5 35 C-33.02578664 31.26674967 -29.69931074 27.4762862 -26.5 23.5 C-10.4218108 3.7312656 -10.4218108 3.7312656 0 0 Z " fill="#0A5898" transform="translate(442,0)"/>
<path d="M0 0 C1.39653809 0.01244751 1.39653809 0.01244751 2.82128906 0.02514648 C9.44347738 0.18854962 14.93630332 0.81055107 20.625 4.4375 C21.39714844 4.911875 22.16929687 5.38625 22.96484375 5.875 C31.22340938 11.59141148 36.36650379 19.6997047 38.625 29.4375 C40.33796859 44.70597968 36.21318442 57.61582007 26.9453125 69.8125 C26.50960937 70.34875 26.07390625 70.885 25.625 71.4375 C25.295 70.4475 24.965 69.4575 24.625 68.4375 C25.56877817 66.54994366 26.51823517 64.66495529 27.5 62.796875 C32.17485441 52.99266645 33.45498462 42.11495387 30 31.75 C25.6331199 21.21186921 19.69370521 14.18044672 9.19140625 9.30859375 C-2.5088611 5.33727013 -15.14526251 6.79487027 -26.375 11.4375 C-31.59694846 14.07848543 -35.98697303 17.5979764 -40.375 21.4375 C-36.56461449 12.55318145 -26.77101507 7.30994777 -18.375 3.4375 C-17.79556641 3.16752197 -17.21613281 2.89754395 -16.61914062 2.61938477 C-11.07139173 0.26187139 -5.98396712 -0.0684159 0 0 Z " fill="#C49F0C" transform="translate(640.375,123.5625)"/>
<path d="M0 0 C0 13.53 0 27.06 0 41 C2.97 41.33 5.94 41.66 9 42 C9.66 42.33 10.32 42.66 11 43 C11 45.31 11 47.62 11 50 C10.36835937 49.81824219 9.73671875 49.63648438 9.0859375 49.44921875 C3.6229138 47.9142193 -1.84560032 46.56752703 -7.3984375 45.39453125 C-8.64028809 45.1313208 -9.88213867 44.86811035 -11.16162109 44.59692383 C-12.56661865 44.30144653 -12.56661865 44.30144653 -14 44 C-14.29796612 38.85932045 -14.51490358 33.72370673 -14.65917969 28.57641602 C-14.71932589 26.82878078 -14.80108028 25.08174467 -14.90527344 23.33618164 C-15.58430402 11.6628471 -15.58430402 11.6628471 -14 7 C-10.30494472 3.17783373 -5.50807808 0 0 0 Z " fill="#174680" transform="translate(655,67)"/>
<path d="M0 0 C3.05980585 2.38507943 5.68674154 4.90192559 8.28515625 7.78125 C6.79417967 11.5764631 4.52814776 13.39167731 1.28515625 15.78125 C0.10953125 14.234375 0.10953125 14.234375 -1.08984375 12.65625 C-8.31513636 4.28032531 -20.82507193 -1.41299969 -31.84277344 -2.41162109 C-45.73449873 -2.89951694 -58.2892145 -2.32309822 -70.53515625 5.015625 C-72.10910156 5.88960937 -72.10910156 5.88960937 -73.71484375 6.78125 C-74.37484375 6.45125 -75.03484375 6.12125 -75.71484375 5.78125 C-54.22318711 -12.98924082 -23.69681465 -16.29826166 0 0 Z " fill="#C39E0D" transform="translate(462.71484375,92.21875)"/>
<path d="M0 0 C11.55 0 23.1 0 35 0 C38.37773153 14.63683663 38.37773153 14.63683663 39.3515625 19.9296875 C39.56296875 21.074375 39.774375 22.2190625 39.9921875 23.3984375 C40.20101562 24.54570313 40.40984375 25.69296875 40.625 26.875 C40.8415625 28.04546875 41.058125 29.2159375 41.28125 30.421875 C41.6911307 32.6534477 42.08813259 34.88744012 42.46972656 37.12402344 C42.93460071 39.90016083 42.93460071 39.90016083 43.61621094 42.16503906 C44.0859375 43.9453125 44.0859375 43.9453125 44 47 C41.93524646 49.40585754 39.61346146 51.22076065 37 53 C34.57474764 42.7829794 32.48782932 32.5450889 30.75 22.1875 C30.57500977 21.15625 30.40001953 20.125 30.21972656 19.0625 C30.05956055 18.08667969 29.89939453 17.11085938 29.734375 16.10546875 C29.59225586 15.24074951 29.45013672 14.37603027 29.30371094 13.48510742 C29 11 29 11 29 6 C19.1 6 9.2 6 -1 6 C-0.67 4.02 -0.34 2.04 0 0 Z " fill="#C49F0B" transform="translate(504,75)"/>
<path d="M0 0 C2.31579125 3.93658212 3.17612148 8.21957529 4.2421875 12.61328125 C4.55665329 13.8831916 4.55665329 13.8831916 4.87747192 15.17875671 C5.54777888 17.88892615 6.21168144 20.60061252 6.875 23.3125 C7.74533532 26.85077009 8.61814727 30.38842465 9.4921875 33.92578125 C9.70494324 34.78712677 9.91769897 35.64847229 10.13690186 36.53591919 C13.24113737 49.47863926 13.24113737 49.47863926 17.10498047 62.20043945 C18.08714159 65.27257301 18.15262772 67.79481794 18 71 C14.535 71.99 14.535 71.99 11 73 C10.77449463 72.11985229 10.77449463 72.11985229 10.54443359 71.22192383 C7.8024915 60.54741685 5.01192078 49.896588 1.9375 39.3125 C-0.10520291 32.23000815 -2.08560604 25.13498857 -3.9375 18 C-4.16123291 17.16895752 -4.38496582 16.33791504 -4.61547852 15.48168945 C-6.51733121 8.00365115 -6.51733121 8.00365115 -5 4 C-2.4375 1.6875 -2.4375 1.6875 0 0 Z " fill="#C49F0B" transform="translate(139,187)"/>
<path d="M0 0 C-0.46192348 3.91652139 -0.94424012 7.82680143 -1.4765625 11.734375 C-1.81653463 14.28473074 -2.01799755 16.68390685 -2.0859375 19.265625 C-2.26788669 22.36742546 -2.48577993 24.27077699 -4 27 C-8.61502093 30.16935172 -12.694681 31.82964223 -18 34 C-17.01 26.41 -16.02 18.82 -15 11 C-17.083125 12.093125 -19.16625 13.18625 -21.3125 14.3125 C-28.55691198 18.00646227 -35.75406693 21 -44 21 C-44 18.36 -44 15.72 -44 13 C-43.1028125 12.84144531 -42.205625 12.68289062 -41.28125 12.51953125 C-28.3267885 10.09726107 -15.92353893 6.75249268 -4.0390625 0.91796875 C-2 0 -2 0 0 0 Z " fill="#1D2D5F" transform="translate(472,181)"/>
<path d="M0 0 C0.29014373 4.46134573 0.574695 8.92300602 0.85449219 13.38500977 C0.95003242 14.89682181 1.0469921 16.40854495 1.14550781 17.92016602 C1.63073991 25.37937169 2.07173206 32.8376664 2.21484375 40.3125 C2.24372681 41.81296875 2.24372681 41.81296875 2.27319336 43.34375 C1.82424696 47.70884096 -0.01668781 49.87116038 -3 53 C-3.33 53 -3.66 53 -4 53 C-6.38859604 37.42394517 -6.09410061 21.71480168 -6 6 C-18.21 9.63 -30.42 13.26 -43 17 C-43 19.64 -43 22.28 -43 25 C-43.66 25 -44.32 25 -45 25 C-45 20.71 -45 16.42 -45 12 C-43.97003906 11.69707031 -42.94007813 11.39414063 -41.87890625 11.08203125 C-41.19884521 10.88198486 -40.51878418 10.68193848 -39.81811523 10.47583008 C-38.29815771 10.02884181 -36.77813685 9.58206891 -35.25805664 9.13549805 C-31.29294469 7.97029555 -27.32886357 6.80183591 -23.3671875 5.625 C-22.6239624 5.40481201 -21.8807373 5.18462402 -21.11499023 4.95776367 C-19.70524602 4.540009 -18.29587753 4.12098345 -16.88696289 3.70043945 C-4.37932367 0 -4.37932367 0 0 0 Z " fill="#C39F0D" transform="translate(300,69)"/>
<path d="M0 0 C0.66 0.33 1.32 0.66 2 1 C1.505 1.78375 1.01 2.5675 0.5 3.375 C-1.82201655 8.98654 -1.92665968 13.81753241 -0.2265625 19.65625 C2.24454203 25.47473726 5.4536599 29.05291708 11.0546875 32.00390625 C19.80329813 34.96265388 28.66577235 33.44864592 37 30 C32.2775814 36.53787669 25.81032497 40.21210194 17.828125 41.51953125 C11.44435882 41.73826436 6.10660249 40.98589884 1 37 C-5.26870235 31.01673769 -8.06026006 27.04008719 -8.4375 18.375 C-8.40984393 10.85254883 -5.26189034 5.26189034 0 0 Z " fill="#C59F0B" transform="translate(211,154)"/>
<path d="M0 0 C0.66 0.33 1.32 0.66 2 1 C1.67 1.66 1.34 2.32 1 3 C0.30328009 10.42406463 0.40711987 16.88563946 5 23 C10.14052102 28.14052102 15.50251455 31.09430819 22.8125 31.4375 C28.39235876 31.2917894 33.01308571 29.37674213 38 27 C36.52794396 30.83399908 34.58125389 32.17752164 31.0625 34.1875 C30.18722656 34.69667969 29.31195312 35.20585937 28.41015625 35.73046875 C22.31684692 38.94007253 15.36671214 38.80129903 8.6796875 37.57421875 C1.91360956 35.41172717 -2.46875672 30.667327 -5.9375 24.625 C-8.29018524 16.59819152 -7.21779757 11.40693757 -3.2890625 4.06640625 C-2 2 -2 2 0 0 Z " fill="#C59F0B" transform="translate(613,145)"/>
<path d="M0 0 C-0.30758717 3.25048455 -0.62192818 6.5002817 -0.9375 9.75 C-1.02451172 10.67039063 -1.11152344 11.59078125 -1.20117188 12.5390625 C-1.28818359 13.42851562 -1.37519531 14.31796875 -1.46484375 15.234375 C-1.543396 16.05131836 -1.62194824 16.86826172 -1.70288086 17.70996094 C-2.24747195 21.90738446 -2.24747195 21.90738446 -3 24 C-5.94140625 25.703125 -5.94140625 25.703125 -9.5625 27.25 C-10.76003906 27.77078125 -11.95757813 28.2915625 -13.19140625 28.828125 C-14.11824219 29.21484375 -15.04507813 29.6015625 -16 30 C-15.85856168 27.2705414 -15.71200471 24.54151877 -15.5625 21.8125 C-15.52318359 21.04357422 -15.48386719 20.27464844 -15.44335938 19.48242188 C-15.22492966 15.56748925 -14.91307892 11.82879312 -14 8 C-15.051875 8.474375 -16.10375 8.94875 -17.1875 9.4375 C-22.55919201 11.71966174 -27.14926545 12.11472029 -33 12 C-33.33 10.02 -33.66 8.04 -34 6 C-33.13217896 5.94054199 -33.13217896 5.94054199 -32.24682617 5.87988281 C-17.71300988 4.97875775 -17.71300988 4.97875775 -3.86328125 0.8046875 C-2 0 -2 0 0 0 Z " fill="#302370" transform="translate(654,219)"/>
<path d="M0 0 C4.2440474 1.06101185 5.12220126 1.76975477 8.046875 4.7890625 C8.81 5.56636719 9.573125 6.34367187 10.359375 7.14453125 C11.14828125 7.96308594 11.9371875 8.78164062 12.75 9.625 C17.77209188 14.78938448 22.78894444 19.83877546 28.28222656 24.50537109 C29.9308959 25.93987275 31.47431855 27.43632265 33 29 C31.59284684 32.40062014 29.97131772 33.89229698 27 36 C19.85074634 29.67633583 12.89304314 23.16470961 5.97875977 16.5859375 C2.43086732 13.22447565 -1.1112105 9.97198255 -5 7 C-3.35 4.69 -1.7 2.38 0 0 Z " fill="#C49F0C" transform="translate(334,69)"/>
<path d="M0 0 C0.66 0.33 1.32 0.66 2 1 C1.67 19.15 1.34 37.3 1 56 C-2.465 56.495 -2.465 56.495 -6 57 C-6.15233938 49.84695779 -6.25729502 42.69433497 -6.32958984 35.54003906 C-6.35973215 33.10726285 -6.40065382 30.67459504 -6.45263672 28.2421875 C-6.52555906 24.74191529 -6.55948333 21.24308164 -6.5859375 17.7421875 C-6.61690521 16.65759247 -6.64787292 15.57299744 -6.67977905 14.45553589 C-6.68352734 6.0141495 -6.68352734 6.0141495 -2.96337891 2.26611328 C-1.98546387 1.5182959 -1.00754883 0.77047852 0 0 Z " fill="#BE9D13" transform="translate(307,171)"/>
<path d="M0 0 C1.03803679 3.11411037 0.98389327 4.19162656 0.44262695 7.32177734 C0.29529617 8.19474457 0.14796539 9.06771179 -0.00382996 9.96713257 C-0.17143326 10.9138382 -0.33903656 11.86054382 -0.51171875 12.8359375 C-0.68121536 13.82510162 -0.85071198 14.81426575 -1.02534485 15.83340454 C-1.5725596 19.01515992 -2.13011066 22.19501308 -2.6875 25.375 C-3.04424975 27.44780834 -3.400376 29.5207241 -3.75585938 31.59375 C-6.02487644 44.75770933 -8.45548007 57.88666238 -11 71 C-12.65 71 -14.3 71 -16 71 C-15.56349728 59.9043397 -13.60097628 49.13563081 -11.61645508 38.23266602 C-11.06074127 35.177832 -10.51496084 32.12134689 -9.97070312 29.06445312 C-9.61776335 27.09885485 -9.26426719 25.13335637 -8.91015625 23.16796875 C-8.74862564 22.26572067 -8.58709503 21.3634726 -8.42066956 20.43388367 C-5.5404961 4.66568092 -5.5404961 4.66568092 0 0 Z " fill="#C6A00A" transform="translate(704,164)"/>
<path d="M0 0 C1.32031886 3.75294136 0.73995001 6.75640565 0.07421875 10.62890625 C-0.14556641 11.91087891 -0.36535156 13.19285156 -0.59179688 14.51367188 C-0.71031006 15.17810303 -0.82882324 15.84253418 -0.95092773 16.52709961 C-1.31156881 18.55725805 -1.65567993 20.5897362 -1.99804688 22.62304688 C-3.74287206 32.61430809 -3.74287206 32.61430809 -6 36 C-14.4254366 27.99249181 -14.4254366 27.99249181 -15.66796875 23.68359375 C-15.68868346 21.36768912 -15.39687762 19.28010084 -15 17 C-14.99226563 16.16210938 -14.98453125 15.32421875 -14.9765625 14.4609375 C-14.78652492 11.46558333 -14.45611988 9.64274892 -13 7 C-8.89782666 4.03584894 -4.66428873 1.98396506 0 0 Z " fill="#18437C" transform="translate(491,61)"/>
<path d="M0 0 C0.66 0.33 1.32 0.66 2 1 C2.51598969 2.88420827 3.01990933 4.77274766 3.45507812 6.67724609 C4.37687089 10.60642904 5.58095041 14.45103573 6.75 18.3125 C7.0087793 19.17045166 7.26755859 20.02840332 7.53417969 20.91235352 C9.40706898 27.09751958 11.31392323 33.27183086 13.25 39.4375 C13.49588867 40.22358643 13.74177734 41.00967285 13.99511719 41.81958008 C15.19440609 45.61222783 16.45344092 49.33056973 18 53 C14.25 56 14.25 56 12 56 C7.78265204 43.67008023 3.69326072 31.3106874 0 18.8125 C-0.30236572 17.80445313 -0.60473145 16.79640625 -0.91625977 15.7578125 C-1.19139404 14.81292969 -1.46652832 13.86804688 -1.75 12.89453125 C-1.99234375 12.06800049 -2.2346875 11.24146973 -2.484375 10.38989258 C-3.03730614 7.82708815 -3.19469186 5.61368292 -3 3 C-1.5 1.1875 -1.5 1.1875 0 0 Z " fill="#C39E0D" transform="translate(117,119)"/>
<path d="M0 0 C2.93231569 1.34048717 5.16757113 2.84818486 7.5625 5 C8.24441406 5.60972656 8.92632812 6.21945313 9.62890625 6.84765625 C10.41136719 7.55792969 11.19382812 8.26820313 12 9 C12.97839844 9.88558594 13.95679688 10.77117187 14.96484375 11.68359375 C17.6485778 14.11654771 20.32566294 16.5567178 23 19 C22.66015625 20.890625 22.66015625 20.890625 22 23 C19.4375 24.75 19.4375 24.75 17 26 C11.70686829 21.40177665 6.48051777 16.73703211 1.296875 12.015625 C-0.73812959 10.22980465 -2.80900749 8.58796705 -5 7 C-3.70700306 4.11562221 -2.34058637 2.12780579 0 0 Z " fill="#C59F0A" transform="translate(459,134)"/>
<path d="M0 0 C1.45312852 2.90625705 0.71292391 4.95182885 0.22265625 8.1484375 C0.03074707 9.41010742 -0.16116211 10.67177734 -0.35888672 11.97167969 C-0.5714286 13.31463763 -0.7851387 14.65741119 -1 16 C-1.20512207 17.28551758 -1.41024414 18.57103516 -1.62158203 19.89550781 C-2.25687942 23.80736989 -2.907185 27.71644463 -3.5625 31.625 C-3.78591486 32.97263842 -4.00922252 34.32029462 -4.23242188 35.66796875 C-4.44576172 36.94542969 -4.65910156 38.22289062 -4.87890625 39.5390625 C-5.0704126 40.68584473 -5.26191895 41.83262695 -5.45922852 43.01416016 C-5.88769856 45.37993381 -6.37518936 47.68028849 -7 50 C-9.31 50 -11.62 50 -14 50 C-13.01 49.505 -13.01 49.505 -12 49 C-11.56769506 46.33712167 -11.24889822 43.74352978 -11 41.0625 C-10.42186884 35.51117907 -9.72221693 30.11634874 -8.484375 24.66796875 C-7.95616756 21.75856812 -7.71140478 18.85592427 -7.45263672 15.91235352 C-6.48216416 5.55635903 -6.48216416 5.55635903 -2.875 2 C-1.92625 1.34 -0.9775 0.68 0 0 Z " fill="#C49F0C" transform="translate(525,152)"/>
<path d="M0 0 C0.96205088 6.37358711 1.10655578 12.55929529 1 19 C-3.76992399 18.2845114 -8.36763208 17.33475008 -13 16 C-14.35439668 13.29120665 -14.06501451 10.99066732 -14 8 C-17.63 8.66 -21.26 9.32 -25 10 C-21.48390713 7.36293035 -18.46241814 5.68353488 -14.5 3.875 C-13.3759375 3.35679688 -12.251875 2.83859375 -11.09375 2.3046875 C-7.001296 0.57882937 -4.46789953 0 0 0 Z " fill="#1D2D60" transform="translate(256,108)"/>
<path d="M0 0 C1.9453125 2.1171875 1.9453125 2.1171875 4.125 4.875 C4.84945313 5.77992187 5.57390625 6.68484375 6.3203125 7.6171875 C8 10 8 10 8 12 C5.89983377 13.17441535 3.79541245 14.33964012 1.6875 15.5 C0.79514648 16.00080078 0.79514648 16.00080078 -0.11523438 16.51171875 C-2.95828844 18.06825114 -4.70660988 19 -8 19 C-8.15275391 18.12601563 -8.15275391 18.12601563 -8.30859375 17.234375 C-9.11517153 14.62780725 -10.24157009 13.26464586 -12.0625 11.25 C-12.61035156 10.63640625 -13.15820312 10.0228125 -13.72265625 9.390625 C-14.14417969 8.93171875 -14.56570313 8.4728125 -15 8 C-11.0826156 4.57228865 -5.47848189 0 0 0 Z " fill="#1C2D5F" transform="translate(391,63)"/>
<path d="M0 0 C4.13190908 3.73075286 7.09820737 8.20327523 10.25 12.75 C10.80429687 13.54277344 11.35859375 14.33554687 11.9296875 15.15234375 C13.29006438 17.09908998 14.64669316 19.04833548 16 21 C13.40503742 24.00469351 12.0785301 24.36858796 8 26 C4.04 20.72 0.08 15.44 -4 10 C-5.32 10.33 -6.64 10.66 -8 11 C-6.63629701 8.00779732 -5.05091917 5.70973471 -2.875 3.25 C-2.33617187 2.63640625 -1.79734375 2.0228125 -1.2421875 1.390625 C-0.62730469 0.70226562 -0.62730469 0.70226562 0 0 Z " fill="#C49F0D" transform="translate(442,20)"/>
<path d="M0 0 C-1.60779201 5.58639596 -4.20603032 10.46612151 -6.9375 15.5625 C-7.38029297 16.39974609 -7.82308594 17.23699219 -8.27929688 18.09960938 C-12.85385522 26.71014171 -12.85385522 26.71014171 -15 30 C-15.33 30 -15.66 30 -16 30 C-16.08138426 27.12442297 -16.14067851 24.25117738 -16.1875 21.375 C-16.21263672 20.56675781 -16.23777344 19.75851563 -16.26367188 18.92578125 C-16.32522689 13.87827 -15.98954813 10.27441775 -13 6 C-10.37109375 4.1015625 -10.37109375 4.1015625 -7.4375 2.625 C-6.46683594 2.12226562 -5.49617188 1.61953125 -4.49609375 1.1015625 C-2 0 -2 0 0 0 Z " fill="#1E2E61" transform="translate(330,47)"/>
<path d="M0 0 C0.66 0.66 1.32 1.32 2 2 C0.76302083 3.39973958 -0.47395833 4.79947917 -1.7109375 6.19921875 C-6.17281506 12.4323265 -5.67352083 19.6577915 -5 27 C-3.37570747 32.57527436 0.1695027 36.74389189 4 41 C2.02 41.66 0.04 42.32 -2 43 C-2.96990276 41.96909707 -3.92536201 40.92459988 -4.875 39.875 C-5.67550781 39.00488281 -5.67550781 39.00488281 -6.4921875 38.1171875 C-11.30879181 31.35397627 -10.68115708 22.91845102 -10 15 C-8.34890272 8.97724741 -4.19867127 4.47858269 0 0 Z " fill="#C5A00C" transform="translate(403,108)"/>
<path d="M0 0 C4.80436782 -0.38434943 8.09024857 -0.47968712 12.4375 1.8125 C15.88226427 4.75315243 16.9321796 6.18615518 17.3125 10.75 C17.17919416 16.31808237 15.07648379 20.38527432 12 25 C11.34 24.67 10.68 24.34 10 24 C10.14308594 23.00419922 10.14308594 23.00419922 10.2890625 21.98828125 C11.32293519 15.21144443 11.32293519 15.21144443 9 9 C6.35103421 7.09817841 4.09454899 6.03151633 1 5 C0.67 3.35 0.34 1.7 0 0 Z " fill="#797C6B" transform="translate(131,126)"/>
<path d="M0 0 C0.91145054 2.97022221 1.01801972 5.06485586 0.44140625 8.109375 C0.30283203 8.86347656 0.16425781 9.61757812 0.02148438 10.39453125 C-0.12998047 11.17183594 -0.28144531 11.94914062 -0.4375 12.75 C-0.58509766 13.54277344 -0.73269531 14.33554688 -0.88476562 15.15234375 C-1.24903966 17.10297246 -1.62352512 19.0516893 -2 21 C-5.92300272 19.17495091 -8.73787272 16.81729174 -12 14 C-8.34161026 8.88863277 -4.55388068 4.33702922 0 0 Z " fill="#1F3063" transform="translate(483,110)"/>
<path d="M0 0 C0.66 0.33 1.32 0.66 2 1 C-1.96 11.23 -5.92 21.46 -10 32 C-10.66 32 -11.32 32 -12 32 C-12.66 30.35 -13.32 28.7 -14 27 C-13.34 27 -12.68 27 -12 27 C-11.90332031 26.36191406 -11.80664062 25.72382813 -11.70703125 25.06640625 C-10.73940433 20.86979225 -9.23288452 16.95161199 -7.6875 12.9375 C-7.39166016 12.13505859 -7.09582031 11.33261719 -6.79101562 10.50585938 C-5.12830635 6.17850587 -3.69251079 3.0078068 0 0 Z " fill="#C5A00C" transform="translate(558,162)"/>
<path d="M0 0 C0.66 0.33 1.32 0.66 2 1 C-0.55886504 2.32002556 -3.12167068 3.63113782 -5.6875 4.9375 C-6.7693457 5.49727539 -6.7693457 5.49727539 -7.87304688 6.06835938 C-14.1328595 9.24114112 -18.9207996 10.13880785 -26 10 C-26.33 8.02 -26.66 6.04 -27 4 C-26.09290283 3.92483154 -26.09290283 3.92483154 -25.16748047 3.84814453 C-22.40261836 3.61469552 -19.63886633 3.36994583 -16.875 3.125 C-15.92367187 3.04636719 -14.97234375 2.96773437 -13.9921875 2.88671875 C-9.00893479 2.43684177 -4.74069351 1.68120441 0 0 Z " fill="#1D2E60" transform="translate(647,221)"/>
<path d="M0 0 C0.66 0.33 1.32 0.66 2 1 C-7.63665115 8.58323389 -14.64979544 12.58810498 -27 12 C-25.60237371 9.36601199 -24.15544988 7.07678383 -22 5 C-18.3125 4.75 -18.3125 4.75 -16.25390625 4.9453125 C-11.33105983 5.06475765 -6.13567563 3.14466068 -1.828125 0.8359375 C-1.22484375 0.56007812 -0.6215625 0.28421875 0 0 Z " fill="#C6A00B" transform="translate(448,143)"/>
<path d="M0 0 C-0.61394071 3.27300996 -1.24304636 6.54292425 -1.875 9.8125 C-2.13603516 11.2056543 -2.13603516 11.2056543 -2.40234375 12.62695312 C-2.57636719 13.51962891 -2.75039063 14.41230469 -2.9296875 15.33203125 C-3.08679199 16.15421143 -3.24389648 16.9763916 -3.40576172 17.82348633 C-4 20 -4 20 -6 23 C-9.44419134 10.51480638 -9.44419134 10.51480638 -9 4 C-2.25 0 -2.25 0 0 0 Z " fill="#1D3063" transform="translate(739,86)"/>
<path d="M0 0 C1.62418745 -0.08090971 3.24951745 -0.13914995 4.875 -0.1875 C5.77992188 -0.22230469 6.68484375 -0.25710938 7.6171875 -0.29296875 C8.79667969 -0.14794922 8.79667969 -0.14794922 10 0 C10.66 0.99 11.32 1.98 12 3 C12.33 2.01 12.66 1.02 13 0 C13.99 0 14.98 0 16 0 C16 2.97 16 5.94 16 9 C13.03 9 10.06 9 7 9 C7 6.69 7 4.38 7 2 C6.01 2 5.02 2 4 2 C4 4.31 4 6.62 4 9 C3.34 9 2.68 9 2 9 C2 6.69 2 4.38 2 2 C1.34 2 0.68 2 0 2 C0 1.34 0 0.68 0 0 Z " fill="#000000" transform="translate(751,264)"/>
<path d="M0 0 C1.19109375 0.13535156 1.19109375 0.13535156 2.40625 0.2734375 C4.5 0.625 4.5 0.625 6.5 1.625 C6.5 3.935 6.5 6.245 6.5 8.625 C-5.02164009 5.54982916 -5.02164009 5.54982916 -10.5 3.625 C-6.64903526 0.6725937 -4.87601968 -0.58575561 0 0 Z " fill="#1E2F62" transform="translate(659.5,108.375)"/>
<path d="M0 0 C-0.33 2.64 -0.66 5.28 -1 8 C-4.96 8 -8.92 8 -13 8 C-13 7.34 -13 6.68 -13 6 C-11.21118264 4.99491199 -9.41885304 3.99607264 -7.625 3 C-6.62726562 2.443125 -5.62953125 1.88625 -4.6015625 1.3125 C-2 0 -2 0 0 0 Z " fill="#0171B7" transform="translate(544,54)"/>
<path d="M0 0 C0.50227431 5.27388024 -0.67105798 7.91015695 -4 12 C-4.99 12.33 -5.98 12.66 -7 13 C-7.61240935 5.7735697 -7.61240935 5.7735697 -4.625 2 C-2 0 -2 0 0 0 Z " fill="#C4A10E" transform="translate(253,155)"/>
<path d="M0 0 C0.91007812 0.00902344 1.82015625 0.01804687 2.7578125 0.02734375 C3.45648438 0.03894531 4.15515625 0.05054687 4.875 0.0625 C4.215 1.7125 3.555 3.3625 2.875 5.0625 C-1.745 5.0625 -6.365 5.0625 -11.125 5.0625 C-6.65069262 0.58819262 -5.90027592 -0.07564456 0 0 Z " fill="#7A7E69" transform="translate(422.125,111.9375)"/>
<path d="M0 0 C0.66 0.66 1.32 1.32 2 2 C1.43333454 3.46489049 0.84595772 4.92178003 0.25 6.375 C-0.07484375 7.18710938 -0.3996875 7.99921875 -0.734375 8.8359375 C-2.19483944 11.33315139 -3.33869601 11.98244259 -6 13 C-6.7230444 5.89006342 -6.7230444 5.89006342 -4.6640625 3.35546875 C-3 2 -3 2 0 0 Z " fill="#C09E12" transform="translate(656,144)"/>
<path d="M0 0 C2.31 0 4.62 0 7 0 C6.45564371 3.81049403 5.01129759 5.63979378 2 8 C-1.25 8.75 -1.25 8.75 -4 9 C-2.54744301 5.17053157 -0.57104439 3.87949705 3 2 C2.01 1.34 1.02 0.68 0 0 Z " fill="#C4A418" transform="translate(229,144)"/>
<path d="M0 0 C-1.2843241 2.86503068 -2.41598787 5.15427705 -5 7 C-8.1875 7.1875 -8.1875 7.1875 -11 7 C-4.36842105 0 -4.36842105 0 0 0 Z " fill="#C19F13" transform="translate(641,133)"/>
<path d="M0 0 C0.33 0 0.66 0 1 0 C1 4.95 1 9.9 1 15 C0.01 14.67 -0.98 14.34 -2 14 C-1.85866501 12.22880197 -1.71176792 10.45804713 -1.5625 8.6875 C-1.48128906 7.70136719 -1.40007813 6.71523437 -1.31640625 5.69921875 C-1 3 -1 3 0 0 Z " fill="#5D8489" transform="translate(705,164)"/>
<path d="M0 0 C0 1.98 0 3.96 0 6 C-2.31 5.34 -4.62 4.68 -7 4 C-3.17391304 0 -3.17391304 0 0 0 Z " fill="#2F2773" transform="translate(666,111)"/>
<path d="M0 0 C0.66 0.33 1.32 0.66 2 1 C-1.32850747 4.59478807 -4.98971331 7.22364768 -9 10 C-9.66 9.67 -10.32 9.34 -11 9 C-7.37 6.03 -3.74 3.06 0 0 Z " fill="#BF9F1A" transform="translate(207,142)"/>
<path d="M0 0 C0.66 0.33 1.32 0.66 2 1 C-0.97 4.96 -0.97 4.96 -4 9 C-4.33 8.34 -4.66 7.68 -5 7 C-2.54545455 1.27272727 -2.54545455 1.27272727 0 0 Z " fill="#BD9E19" transform="translate(265,201)"/>
<path d="M0 0 C0.66 0.33 1.32 0.66 2 1 C-0.36292656 3.52588702 -1.66462511 4.88820837 -5 6 C-5 5.01 -5 4.02 -5 3 C-2.625 1.25 -2.625 1.25 0 0 Z " fill="#BE9C14" transform="translate(36,98)"/>
</svg>
